<?xml version="1.0" encoding="UTF-8" standalone="no"?>
<!DOCTYPE svg PUBLIC "-//W3C//DTD SVG 1.1//EN" "http://www.w3.org/Graphics/SVG/1.1/DTD/svg11.dtd">
<svg width="100%" height="100%" viewBox="0 0 212 236" version="1.1" xmlns="http://www.w3.org/2000/svg" xmlns:xlink="http://www.w3.org/1999/xlink" xml:space="preserve" xmlns:serif="http://www.serif.com/" style="fill-rule:evenodd;clip-rule:evenodd;stroke-linejoin:round;stroke-miterlimit:2;">
    <g transform="matrix(1,0,0,1,-1239.76,-603.989)">
        <g transform="matrix(0.870448,0,0,2.9234,964.371,-476.481)">
            <g transform="matrix(0.229004,0,0,0.0681864,-1667.16,239.339)">
                <g>
                    <g>
                        <g>
                            <g transform="matrix(0.592259,0,0,0.592259,3360.39,907.098)">
                                <g transform="matrix(1,0,0,1,181.01,-831.622)">
                                    <circle cx="8972.23" cy="2611.65" r="60.661"/>
                                </g>
                                <g transform="matrix(0.679258,0,0,0.679258,3073.22,-88.3989)">
                                    <text x="8894.75px" y="2794.41px" style="font-family:'FredokaOne-Regular', 'Fredoka One';font-size:124.944px;fill:white;">M</text>
                                </g>
                            </g>
                            <g transform="matrix(0.592259,0,0,0.592259,3276.41,907.098)">
                                <g transform="matrix(1,0,0,1,181.01,-831.622)">
                                    <circle cx="8972.23" cy="2611.65" r="60.661"/>
                                </g>
                                <g transform="matrix(0.679258,0,0,0.679258,3073.22,-88.3989)">
                                    <text x="8894.75px" y="2794.41px" style="font-family:'FredokaOne-Regular', 'Fredoka One';font-size:124.944px;fill:white;">M</text>
                                </g>
                            </g>
                            <g transform="matrix(0.84183,0,0,0.84183,1480.39,462.855)">
                                <g>
                                    <g transform="matrix(1,0,0,1,181.01,-831.622)">
                                        <circle cx="8972.23" cy="2611.65" r="60.661" style="fill:rgb(196,25,25);"/>
                                    </g>
                                    <g transform="matrix(0.679258,0,0,0.679258,3083.95,-86.9561)">
                                        <text x="8894.75px" y="2794.41px" style="font-family:'FredokaOne-Regular', 'Fredoka One';font-size:124.944px;fill:white;">P</text>
                                    </g>
                                </g>
                            </g>
                            <g transform="matrix(0.592259,0,0,0.592259,3612.32,907.098)">
                                <g transform="matrix(1,0,0,1,181.01,-831.622)">
                                    <circle cx="8972.23" cy="2611.65" r="60.661"/>
                                </g>
                                <g transform="matrix(0.679258,0,0,0.679258,3073.22,-88.3989)">
                                    <text x="8894.75px" y="2794.41px" style="font-family:'FredokaOne-Regular', 'Fredoka One';font-size:124.944px;fill:white;">M</text>
                                </g>
                            </g>
                            <g transform="matrix(0.592259,0,0,0.592259,3528.35,907.098)">
                                <g transform="matrix(1,0,0,1,181.01,-831.622)">
                                    <circle cx="8972.23" cy="2611.65" r="60.661"/>
                                </g>
                                <g transform="matrix(0.679258,0,0,0.679258,3073.22,-88.3989)">
                                    <text x="8894.75px" y="2794.41px" style="font-family:'FredokaOne-Regular', 'Fredoka One';font-size:124.944px;fill:white;">M</text>
                                </g>
                            </g>
                            <g transform="matrix(0.592259,0,0,0.592259,3444.37,907.098)">
                                <g transform="matrix(1,0,0,1,181.01,-831.622)">
                                    <circle cx="8972.23" cy="2611.65" r="60.661"/>
                                </g>
                                <g transform="matrix(0.679258,0,0,0.679258,3073.22,-88.3989)">
                                    <text x="8894.75px" y="2794.41px" style="font-family:'FredokaOne-Regular', 'Fredoka One';font-size:124.944px;fill:white;">M</text>
                                </g>
                            </g>
                            <g transform="matrix(0.118427,0.118427,-0.118427,0.118427,8297.37,479.984)">
                                <path d="M9706.67,2737.9L9765.91,2799.58L9710.9,2856.84L9765.91,2914.11L9706.67,2975.78L9651.65,2918.52L9596.64,2975.78L9537.39,2914.11L9592.41,2856.84L9537.39,2799.58L9596.64,2737.9L9651.65,2795.17L9706.67,2737.9Z"/>
                            </g>
                        </g>
                        <g transform="matrix(1,0,0,1,222.986,-346.145)">
                            <text x="9076.1px" y="2328.63px" style="font-family:'FredokaOne-Regular', 'Fredoka One';font-size:68.259px;fill:white;">$$ Jackpo<tspan x="9387.91px " y="2328.63px ">t</tspan> $$</text>
                        </g>
                    </g>
                    <g transform="matrix(1,0,0,1,0,-0.946483)">
                        <g transform="matrix(1,0,0,1,167.585,-5.55595)">
                            <g transform="matrix(0.592259,0,0,0.592259,3360.39,1044.79)">
                                <g transform="matrix(1,0,0,1,181.01,-831.622)">
                                    <circle cx="8972.23" cy="2611.65" r="60.661"/>
                                </g>
                                <g transform="matrix(0.679258,0,0,0.679258,3073.22,-88.3989)">
                                    <text x="8894.75px" y="2794.41px" style="font-family:'FredokaOne-Regular', 'Fredoka One';font-size:124.944px;fill:white;">M</text>
                                </g>
                            </g>
                            <g transform="matrix(0.592259,0,0,0.592259,3276.41,1044.79)">
                                <g transform="matrix(1,0,0,1,181.01,-831.622)">
                                    <circle cx="8972.23" cy="2611.65" r="60.661"/>
                                </g>
                                <g transform="matrix(0.679258,0,0,0.679258,3073.22,-88.3989)">
                                    <text x="8894.75px" y="2794.41px" style="font-family:'FredokaOne-Regular', 'Fredoka One';font-size:124.944px;fill:white;">M</text>
                                </g>
                            </g>
                            <g transform="matrix(0.592259,0,0,0.592259,3612.32,1044.79)">
                                <g transform="matrix(1,0,0,1,181.01,-831.622)">
                                    <circle cx="8972.23" cy="2611.65" r="60.661"/>
                                </g>
                                <g transform="matrix(0.679258,0,0,0.679258,3073.22,-88.3989)">
                                    <text x="8894.75px" y="2794.41px" style="font-family:'FredokaOne-Regular', 'Fredoka One';font-size:124.944px;fill:white;">M</text>
                                </g>
                            </g>
                            <g transform="matrix(0.592259,0,0,0.592259,3528.35,1044.79)">
                                <g transform="matrix(1,0,0,1,181.01,-831.622)">
                                    <circle cx="8972.23" cy="2611.65" r="60.661"/>
                                </g>
                                <g transform="matrix(0.679258,0,0,0.679258,3073.22,-88.3989)">
                                    <text x="8894.75px" y="2794.41px" style="font-family:'FredokaOne-Regular', 'Fredoka One';font-size:124.944px;fill:white;">M</text>
                                </g>
                            </g>
                            <g transform="matrix(0.592259,0,0,0.592259,3444.37,1044.79)">
                                <g transform="matrix(1,0,0,1,181.01,-831.622)">
                                    <circle cx="8972.23" cy="2611.65" r="60.661"/>
                                </g>
                                <g transform="matrix(0.679258,0,0,0.679258,3073.22,-88.3989)">
                                    <text x="8894.75px" y="2794.41px" style="font-family:'FredokaOne-Regular', 'Fredoka One';font-size:124.944px;fill:white;">M</text>
                                </g>
                            </g>
                        </g>
                        <g transform="matrix(1,0,0,1,222.986,-211.234)">
                            <text x="9076.1px" y="2328.63px" style="font-family:'FredokaOne-Regular', 'Fredoka One';font-size:68.259px;fill:white;">$1,000,000</text>
                        </g>
                    </g>
                    <g>
                        <g transform="matrix(1,0,0,1,0,-13.0049)">
                            <g transform="matrix(0.592259,0,0,0.592259,3360.39,1182.48)">
                                <g transform="matrix(1,0,0,1,181.01,-831.622)">
                                    <circle cx="8972.23" cy="2611.65" r="60.661"/>
                                </g>
                                <g transform="matrix(0.679258,0,0,0.679258,3073.22,-88.3989)">
                                    <text x="8894.75px" y="2794.41px" style="font-family:'FredokaOne-Regular', 'Fredoka One';font-size:124.944px;fill:white;">M</text>
                                </g>
                            </g>
                            <g transform="matrix(0.84183,0,0,0.84183,1480.39,738.24)">
                                <g>
                                    <g transform="matrix(1,0,0,1,181.01,-831.622)">
                                        <circle cx="8972.23" cy="2611.65" r="60.661" style="fill:rgb(196,25,25);"/>
                                    </g>
                                    <g transform="matrix(0.679258,0,0,0.679258,3083.95,-87.9413)">
                                        <text x="8894.75px" y="2794.41px" style="font-family:'FredokaOne-Regular', 'Fredoka One';font-size:124.944px;fill:white;">P</text>
                                    </g>
                                </g>
                            </g>
                            <g transform="matrix(0.592259,0,0,0.592259,3612.32,1182.48)">
                                <g transform="matrix(1,0,0,1,181.01,-831.622)">
                                    <circle cx="8972.23" cy="2611.65" r="60.661"/>
                                </g>
                                <g transform="matrix(0.679258,0,0,0.679258,3073.22,-88.3989)">
                                    <text x="8894.75px" y="2794.41px" style="font-family:'FredokaOne-Regular', 'Fredoka One';font-size:124.944px;fill:white;">M</text>
                                </g>
                            </g>
                            <g transform="matrix(0.592259,0,0,0.592259,3528.35,1182.48)">
                                <g transform="matrix(1,0,0,1,181.01,-831.622)">
                                    <circle cx="8972.23" cy="2611.65" r="60.661"/>
                                </g>
                                <g transform="matrix(0.679258,0,0,0.679258,3073.22,-88.3989)">
                                    <text x="8894.75px" y="2794.41px" style="font-family:'FredokaOne-Regular', 'Fredoka One';font-size:124.944px;fill:white;">M</text>
                                </g>
                            </g>
                            <g transform="matrix(0.592259,0,0,0.592259,3444.37,1182.48)">
                                <g transform="matrix(1,0,0,1,181.01,-831.622)">
                                    <circle cx="8972.23" cy="2611.65" r="60.661"/>
                                </g>
                                <g transform="matrix(0.679258,0,0,0.679258,3073.22,-88.3989)">
                                    <text x="8894.75px" y="2794.41px" style="font-family:'FredokaOne-Regular', 'Fredoka One';font-size:124.944px;fill:white;">M</text>
                                </g>
                            </g>
                            <g transform="matrix(0.118427,0.118427,-0.118427,0.118427,8297.37,755.369)">
                                <path d="M9706.67,2737.9L9765.91,2799.58L9710.9,2856.84L9765.91,2914.11L9706.67,2975.78L9651.65,2918.52L9596.64,2975.78L9537.39,2914.11L9592.41,2856.84L9537.39,2799.58L9596.64,2737.9L9651.65,2795.17L9706.67,2737.9Z"/>
                            </g>
                        </g>
                        <g transform="matrix(1,0,0,1,222.986,-80.9909)">
                            <text x="9076.1px" y="2328.63px" style="font-family:'FredokaOne-Regular', 'Fredoka One';font-size:68.259px;fill:white;">$10,000</text>
                        </g>
                    </g>
                    <g transform="matrix(1,0,0,1,0,-5.12721)">
                        <g transform="matrix(1,0,0,1,167.585,-14.3801)">
                            <g transform="matrix(0.592259,0,0,0.592259,3360.39,1320.17)">
                                <g transform="matrix(1,0,0,1,181.01,-831.622)">
                                    <circle cx="8972.23" cy="2611.65" r="60.661"/>
                                </g>
                                <g transform="matrix(0.679258,0,0,0.679258,3073.22,-88.3989)">
                                    <text x="8894.75px" y="2794.41px" style="font-family:'FredokaOne-Regular', 'Fredoka One';font-size:124.944px;fill:white;">M</text>
                                </g>
                            </g>
                            <g transform="matrix(0.592259,0,0,0.592259,3612.32,1320.17)">
                                <g transform="matrix(1,0,0,1,181.01,-831.622)">
                                    <circle cx="8972.23" cy="2611.65" r="60.661"/>
                                </g>
                                <g transform="matrix(0.679258,0,0,0.679258,3073.22,-88.3989)">
                                    <text x="8894.75px" y="2794.41px" style="font-family:'FredokaOne-Regular', 'Fredoka One';font-size:124.944px;fill:white;">M</text>
                                </g>
                            </g>
                            <g transform="matrix(0.592259,0,0,0.592259,3528.35,1320.17)">
                                <g transform="matrix(1,0,0,1,181.01,-831.622)">
                                    <circle cx="8972.23" cy="2611.65" r="60.661"/>
                                </g>
                                <g transform="matrix(0.679258,0,0,0.679258,3073.22,-88.3989)">
                                    <text x="8894.75px" y="2794.41px" style="font-family:'FredokaOne-Regular', 'Fredoka One';font-size:124.944px;fill:white;">M</text>
                                </g>
                            </g>
                            <g transform="matrix(0.592259,0,0,0.592259,3444.37,1320.17)">
                                <g transform="matrix(1,0,0,1,181.01,-831.622)">
                                    <circle cx="8972.23" cy="2611.65" r="60.661"/>
                                </g>
                                <g transform="matrix(0.679258,0,0,0.679258,3073.22,-88.3989)">
                                    <text x="8894.75px" y="2794.41px" style="font-family:'FredokaOne-Regular', 'Fredoka One';font-size:124.944px;fill:white;">M</text>
                                </g>
                            </g>
                        </g>
                        <g transform="matrix(1,0,0,1,222.986,55.3261)">
                            <text x="9076.1px" y="2328.63px" style="font-family:'FredokaOne-Regular', 'Fredoka One';font-size:68.259px;fill:white;">$500</text>
                        </g>
                    </g>
                    <g>
                        <g transform="matrix(1,0,0,1,0,-26.0097)">
                            <g transform="matrix(0.84183,0,0,0.84183,1480.39,1013.62)">
                                <g>
                                    <g transform="matrix(1,0,0,1,181.01,-831.622)">
                                        <circle cx="8972.23" cy="2611.65" r="60.661" style="fill:rgb(196,25,25);"/>
                                    </g>
                                    <g transform="matrix(0.679258,0,0,0.679258,3083.95,-87.9413)">
                                        <text x="8894.75px" y="2794.41px" style="font-family:'FredokaOne-Regular', 'Fredoka One';font-size:124.944px;fill:white;">P</text>
                                    </g>
                                </g>
                            </g>
                            <g transform="matrix(0.592259,0,0,0.592259,3612.32,1457.87)">
                                <g transform="matrix(1,0,0,1,181.01,-831.622)">
                                    <circle cx="8972.23" cy="2611.65" r="60.661"/>
                                </g>
                                <g transform="matrix(0.679258,0,0,0.679258,3073.22,-88.3989)">
                                    <text x="8894.75px" y="2794.41px" style="font-family:'FredokaOne-Regular', 'Fredoka One';font-size:124.944px;fill:white;">M</text>
                                </g>
                            </g>
                            <g transform="matrix(0.592259,0,0,0.592259,3528.35,1457.87)">
                                <g transform="matrix(1,0,0,1,181.01,-831.622)">
                                    <circle cx="8972.23" cy="2611.65" r="60.661"/>
                                </g>
                                <g transform="matrix(0.679258,0,0,0.679258,3073.22,-88.3989)">
                                    <text x="8894.75px" y="2794.41px" style="font-family:'FredokaOne-Regular', 'Fredoka One';font-size:124.944px;fill:white;">M</text>
                                </g>
                            </g>
                            <g transform="matrix(0.592259,0,0,0.592259,3444.37,1457.87)">
                                <g transform="matrix(1,0,0,1,181.01,-831.622)">
                                    <circle cx="8972.23" cy="2611.65" r="60.661"/>
                                </g>
                                <g transform="matrix(0.679258,0,0,0.679258,3073.22,-88.3989)">
                                    <text x="8894.75px" y="2794.41px" style="font-family:'FredokaOne-Regular', 'Fredoka One';font-size:124.944px;fill:white;">M</text>
                                </g>
                            </g>
                            <g transform="matrix(0.118427,0.118427,-0.118427,0.118427,8297.37,1030.75)">
                                <path d="M9706.67,2737.9L9765.91,2799.58L9710.9,2856.84L9765.91,2914.11L9706.67,2975.78L9651.65,2918.52L9596.64,2975.78L9537.39,2914.11L9592.41,2856.84L9537.39,2799.58L9596.64,2737.9L9651.65,2795.17L9706.67,2737.9Z"/>
                            </g>
                        </g>
                        <g transform="matrix(1,0,0,1,222.986,181.389)">
                            <text x="9076.1px" y="2328.63px" style="font-family:'FredokaOne-Regular', 'Fredoka One';font-size:68.259px;fill:white;">$200</text>
                        </g>
                    </g>
                    <g transform="matrix(1,0,0,1,0,-9.30793)">
                        <g transform="matrix(1,0,0,1,167.585,-23.2042)">
                            <g transform="matrix(0.592259,0,0,0.592259,3612.32,1595.56)">
                                <g transform="matrix(1,0,0,1,181.01,-831.622)">
                                    <circle cx="8972.23" cy="2611.65" r="60.661"/>
                                </g>
                                <g transform="matrix(0.679258,0,0,0.679258,3073.22,-88.3989)">
                                    <text x="8894.75px" y="2794.41px" style="font-family:'FredokaOne-Regular', 'Fredoka One';font-size:124.944px;fill:white;">M</text>
                                </g>
                            </g>
                            <g transform="matrix(0.592259,0,0,0.592259,3528.35,1595.56)">
                                <g transform="matrix(1,0,0,1,181.01,-831.622)">
                                    <circle cx="8972.23" cy="2611.65" r="60.661"/>
                                </g>
                                <g transform="matrix(0.679258,0,0,0.679258,3073.22,-88.3989)">
                                    <text x="8894.75px" y="2794.41px" style="font-family:'FredokaOne-Regular', 'Fredoka One';font-size:124.944px;fill:white;">M</text>
                                </g>
                            </g>
                            <g transform="matrix(0.592259,0,0,0.592259,3444.37,1595.56)">
                                <g transform="matrix(1,0,0,1,181.01,-831.622)">
                                    <circle cx="8972.23" cy="2611.65" r="60.661"/>
                                </g>
                                <g transform="matrix(0.679258,0,0,0.679258,3073.22,-88.3989)">
                                    <text x="8894.75px" y="2794.41px" style="font-family:'FredokaOne-Regular', 'Fredoka One';font-size:124.944px;fill:white;">M</text>
                                </g>
                            </g>
                        </g>
                        <g transform="matrix(1,0,0,1,222.986,321.886)">
                            <text x="9076.1px" y="2328.63px" style="font-family:'FredokaOne-Regular', 'Fredoka One';font-size:68.259px;fill:white;">$10</text>
                        </g>
                    </g>
                    <g transform="matrix(1,0,0,1,0,-3.82864)">
                        <g transform="matrix(1,0,0,1,0,-27.939)">
                            <g transform="matrix(0.84183,0,0,0.84183,1480.39,1281.76)">
                                <g>
                                    <g transform="matrix(1,0,0,1,181.01,-831.622)">
                                        <circle cx="8972.23" cy="2611.65" r="60.661" style="fill:rgb(196,25,25);"/>
                                    </g>
                                    <g transform="matrix(0.679258,0,0,0.679258,3083.95,-86.9561)">
                                        <text x="8894.75px" y="2794.41px" style="font-family:'FredokaOne-Regular', 'Fredoka One';font-size:124.944px;fill:white;">P</text>
                                    </g>
                                </g>
                            </g>
                            <g transform="matrix(0.592259,0,0,0.592259,3612.32,1726)">
                                <g transform="matrix(1,0,0,1,181.01,-831.622)">
                                    <circle cx="8972.23" cy="2611.65" r="60.661"/>
                                </g>
                                <g transform="matrix(0.679258,0,0,0.679258,3073.22,-88.3989)">
                                    <text x="8894.75px" y="2794.41px" style="font-family:'FredokaOne-Regular', 'Fredoka One';font-size:124.944px;fill:white;">M</text>
                                </g>
                            </g>
                            <g transform="matrix(0.592259,0,0,0.592259,3528.35,1726)">
                                <g transform="matrix(1,0,0,1,181.01,-831.622)">
                                    <circle cx="8972.23" cy="2611.65" r="60.661"/>
                                </g>
                                <g transform="matrix(0.679258,0,0,0.679258,3073.22,-88.3989)">
                                    <text x="8894.75px" y="2794.41px" style="font-family:'FredokaOne-Regular', 'Fredoka One';font-size:124.944px;fill:white;">M</text>
                                </g>
                            </g>
                            <g transform="matrix(0.118427,0.118427,-0.118427,0.118427,8297.37,1298.89)">
                                <path d="M9706.67,2737.9L9765.91,2799.58L9710.9,2856.84L9765.91,2914.11L9706.67,2975.78L9651.65,2918.52L9596.64,2975.78L9537.39,2914.11L9592.41,2856.84L9537.39,2799.58L9596.64,2737.9L9651.65,2795.17L9706.67,2737.9Z"/>
                            </g>
                        </g>
                        <g transform="matrix(1,0,0,1,222.986,447.597)">
                            <text x="9076.1px" y="2328.63px" style="font-family:'FredokaOne-Regular', 'Fredoka One';font-size:68.259px;fill:white;">$10</text>
                        </g>
                    </g>
                    <g>
                        <g transform="matrix(1,0,0,1,0,-15.8838)">
                            <g transform="matrix(0.84183,0,0,0.84183,1480.39,1412.21)">
                                <g>
                                    <g transform="matrix(1,0,0,1,181.01,-831.622)">
                                        <circle cx="8972.23" cy="2611.65" r="60.661" style="fill:rgb(196,25,25);"/>
                                    </g>
                                    <g transform="matrix(0.679258,0,0,0.679258,3083.95,-86.9561)">
                                        <text x="8894.75px" y="2794.41px" style="font-family:'FredokaOne-Regular', 'Fredoka One';font-size:124.944px;fill:white;">P</text>
                                    </g>
                                </g>
                            </g>
                            <g transform="matrix(0.592259,0,0,0.592259,3612.32,1856.45)">
                                <g transform="matrix(1,0,0,1,181.01,-831.622)">
                                    <circle cx="8972.23" cy="2611.65" r="60.661"/>
                                </g>
                                <g transform="matrix(0.679258,0,0,0.679258,3073.22,-88.3989)">
                                    <text x="8894.75px" y="2794.41px" style="font-family:'FredokaOne-Regular', 'Fredoka One';font-size:124.944px;fill:white;">M</text>
                                </g>
                            </g>
                            <g transform="matrix(0.118427,0.118427,-0.118427,0.118427,8297.37,1429.34)">
                                <path d="M9706.67,2737.9L9765.91,2799.58L9710.9,2856.84L9765.91,2914.11L9706.67,2975.78L9651.65,2918.52L9596.64,2975.78L9537.39,2914.11L9592.41,2856.84L9537.39,2799.58L9596.64,2737.9L9651.65,2795.17L9706.67,2737.9Z"/>
                            </g>
                        </g>
                        <g transform="matrix(1,0,0,1,222.986,590.097)">
                            <text x="9076.1px" y="2328.63px" style="font-family:'FredokaOne-Regular', 'Fredoka One';font-size:68.259px;fill:white;">$4</text>
                        </g>
                    </g>
                    <g>
                        <g transform="matrix(0.84183,0,0,0.84183,1480.39,1542.65)">
                            <g>
                                <g transform="matrix(1,0,0,1,181.01,-831.622)">
                                    <circle cx="8972.23" cy="2611.65" r="60.661" style="fill:rgb(196,25,25);"/>
                                </g>
                                <g transform="matrix(0.679258,0,0,0.679258,3083.95,-86.9561)">
                                    <text x="8894.75px" y="2794.41px" style="font-family:'FredokaOne-Regular', 'Fredoka One';font-size:124.944px;fill:white;">P</text>
                                </g>
                            </g>
                        </g>
                        <g transform="matrix(1,0,0,1,222.986,736.426)">
                            <text x="9076.1px" y="2328.63px" style="font-family:'FredokaOne-Regular', 'Fredoka One';font-size:68.259px;fill:white;">$2</text>
                        </g>
                    </g>
                </g>
            </g>
        </g>
    </g>
</svg>
