<?xml version="1.0" encoding="UTF-8" standalone="no"?>
<!DOCTYPE svg PUBLIC "-//W3C//DTD SVG 1.1//EN" "http://www.w3.org/Graphics/SVG/1.1/DTD/svg11.dtd">
<svg width="100%" height="100%" viewBox="0 0 933 112" version="1.1" xmlns="http://www.w3.org/2000/svg" xmlns:xlink="http://www.w3.org/1999/xlink" xml:space="preserve" xmlns:serif="http://www.serif.com/" style="fill-rule:evenodd;clip-rule:evenodd;stroke-linecap:round;stroke-linejoin:round;stroke-miterlimit:1.5;">
    <g transform="matrix(1,0,0,1,-520.119,-3393.84)">
        <g transform="matrix(1,0,0,6.83185,0,0)">
            <g transform="matrix(1,0,0,1,0,4.91745)">
                <g transform="matrix(1,0,0,1,-73.5369,-81.7664)">
                    <g transform="matrix(0.0491519,0,0,0.0767963,1381.49,303.757)">
                        <path d="M507.376,3600.61L689.171,3600.61" style="fill:none;stroke:black;stroke-width:6.73px;"/>
                    </g>
                    <g transform="matrix(0.477289,0,0,0.0698624,911.192,333.913)">
                        <text x="902.56px" y="3569.71px" style="font-family:'FredokaOne-Regular', 'Fredoka One';font-size:50.284px;">0.0357</text>
                    </g>
                </g>
                <g transform="matrix(1,0,0,1,-174.412,-82.0498)">
                    <g transform="matrix(0.0503403,0,0,0.0767963,1571,303.993)">
                        <path d="M507.376,3600.61L689.171,3600.61" style="fill:none;stroke:black;stroke-width:6.71px;"/>
                    </g>
                    <g transform="matrix(0.779862,0,0,0.114151,994.218,181.955)">
                        <text x="727.452px" y="3518.33px" style="font-family:'FredokaOne-Regular', 'Fredoka One';font-size:30.775px;">3.57%</text>
                    </g>
                </g>
                <g transform="matrix(0.779862,0,0,0.114151,202.628,95.7076)">
                    <text x="714.7px" y="3548.99px" style="font-family:'FredokaOne-Regular', 'Fredoka One';font-size:30.775px;">=</text>
                </g>
                <g transform="matrix(0.779862,0,0,0.114151,341.923,95.7076)">
                    <text x="714.7px" y="3548.99px" style="font-family:'FredokaOne-Regular', 'Fredoka One';font-size:30.775px;">=</text>
                </g>
                <g transform="matrix(0.779862,0,0,0.114151,436.004,95.7076)">
                    <text x="714.7px" y="3548.99px" style="font-family:'FredokaOne-Regular', 'Fredoka One';font-size:30.775px;">=</text>
                </g>
                <g transform="matrix(0.779862,0,0,0.114151,533.94,95.7076)">
                    <text x="714.7px" y="3548.99px" style="font-family:'FredokaOne-Regular', 'Fredoka One';font-size:30.775px;">=</text>
                </g>
                <g transform="matrix(0.779862,0,0,0.098167,604.917,152.434)">
                    <text x="714.7px" y="3548.99px" style="font-family:'FredokaOne-Regular', 'Fredoka One';font-size:35.786px;">=</text>
                </g>
                <g transform="matrix(0.779862,0,0,0.098167,680.353,152.434)">
                    <text x="714.7px" y="3548.99px" style="font-family:'FredokaOne-Regular', 'Fredoka One';font-size:35.786px;">=</text>
                </g>
                <g transform="matrix(0.779862,0,0,0.098167,802.407,152.434)">
                    <text x="714.7px" y="3548.99px" style="font-family:'FredokaOne-Regular', 'Fredoka One';font-size:35.786px;">=</text>
                </g>
                <g transform="matrix(1,0,0,1,-59.3904,-70.2367)">
                    <g transform="matrix(0.779862,0,0,0.114151,316.792,167.046)">
                        <text x="727.452px" y="3518.33px" style="font-family:'FredokaOne-Regular', 'Fredoka One';font-size:30.775px;">8!</text>
                    </g>
                    <g transform="matrix(0.779862,0,0,0.114151,284.5,172.101)">
                        <text x="727.452px" y="3518.33px" style="font-family:'FredokaOne-Regular', 'Fredoka One';font-size:30.775px;">(8-2)!2!</text>
                    </g>
                    <g transform="matrix(0.450226,0,0,0.114151,510.985,-32.7121)">
                        <path d="M754.556,5278.13L947.374,5278.13" style="fill:none;stroke:black;stroke-width:5.29px;"/>
                    </g>
                </g>
                <g transform="matrix(1,0,0,1,-135.319,-72.9189)">
                    <g transform="matrix(0.779862,0,0,0.114151,509.376,170.121)">
                        <text x="727.452px" y="3518.33px" style="font-family:'FredokaOne-Regular', 'Fredoka One';font-size:30.775px;">8!</text>
                    </g>
                    <g transform="matrix(0.779862,0,0,0.114151,499.128,175.146)">
                        <text x="727.452px" y="3518.33px" style="font-family:'FredokaOne-Regular', 'Fredoka One';font-size:30.775px;">6!2!</text>
                    </g>
                    <g transform="matrix(0.225301,0,0,0.114151,894.972,-29.6137)">
                        <path d="M754.556,5278.13L947.374,5278.13" style="fill:none;stroke:black;stroke-width:5.87px;"/>
                    </g>
                </g>
                <g transform="matrix(1,0,0,1,-170.821,-71.8548)">
                    <g transform="matrix(0.779862,0,0,0.114151,630.643,169.283)">
                        <text x="727.452px" y="3518.33px" style="font-family:'FredokaOne-Regular', 'Fredoka One';font-size:30.775px;">7x8</text>
                    </g>
                    <g transform="matrix(0.779862,0,0,0.114151,643.615,173.894)">
                        <text x="727.452px" y="3518.33px" style="font-family:'FredokaOne-Regular', 'Fredoka One';font-size:30.775px;">2</text>
                    </g>
                    <g transform="matrix(0.246335,0,0,0.114151,1008.73,-30.6112)">
                        <path d="M754.556,5278.13L947.374,5278.13" style="fill:none;stroke:black;stroke-width:5.83px;"/>
                    </g>
                </g>
                <g transform="matrix(0.779862,0,0,0.114151,551.926,99.7126)">
                    <text x="727.452px" y="3518.33px" style="font-family:'FredokaOne-Regular', 'Fredoka One';font-size:30.775px;">28</text>
                </g>
                <g transform="matrix(1,0,0,1,-470.045,-68.2641)">
                    <g transform="matrix(0.779862,0,0,0.114151,1096.22,170.309)">
                        <text x="727.452px" y="3518.33px" style="font-family:'FredokaOne-Regular', 'Fredoka One';font-size:30.775px;">28</text>
                    </g>
                    <g transform="matrix(0.150631,0,0,0.0897591,1587.7,245.081)">
                        <path d="M507.376,3600.61L689.171,3600.61" style="fill:none;stroke:black;stroke-width:4.97px;"/>
                    </g>
                    <g transform="matrix(0.779862,0,0,0.114151,1105.92,165.595)">
                        <text x="727.452px" y="3518.33px" style="font-family:'FredokaOne-Regular', 'Fredoka One';font-size:30.775px;">1</text>
                    </g>
                </g>
                <g transform="matrix(0.684355,0,0,0.684355,195.014,155.379)">
                    <g>
                        <g transform="matrix(0.510624,0,0,0.0496957,217.597,320.799)">
                            <path d="M507.376,3600.61L689.171,3600.61" style="fill:none;stroke:black;stroke-width:7.48px;"/>
                        </g>
                        <g transform="matrix(0.649431,0,0,0.649431,409.498,-17.8436)">
                            <g>
                                <g transform="matrix(-0.678804,0.0993587,-0.681968,-0.0998219,4184.05,1327.69)">
                                    <path d="M352.488,5453.59C332.825,5453.59 313.967,5461.4 300.063,5475.31L352.488,5527.73L352.488,5453.59Z" style="fill:rgb(25,196,196);"/>
                                </g>
                                <g transform="matrix(1.22364,0.179108,-1.22364,0.179108,3536.6,78.3596)">
                                    <path d="M671.476,3377.3C648.627,3377.3 630.104,3395.82 630.104,3418.67C630.104,3441.5 648.642,3460.04 671.476,3460.04C694.326,3460.04 712.849,3441.52 712.849,3418.67L671.476,3418.67L671.476,3377.3Z" style="fill:rgb(204,98,49);"/>
                                </g>
                                <g transform="matrix(5.87814e-17,0.140514,-0.964449,8.64414e-18,5506.09,761.39)">
                                    <path d="M352.488,5453.59C332.825,5453.59 313.967,5461.4 300.063,5475.31L352.488,5527.73L352.488,5453.59Z" style="fill:rgb(196,25,25);"/>
                                </g>
                            </g>
                        </g>
                        <g transform="matrix(4.26675e-17,0.101995,-0.700062,6.2745e-18,4366.89,461.056)">
                            <path d="M352.488,5453.59C332.825,5453.59 313.967,5461.4 300.063,5475.31L352.488,5527.73L352.488,5453.59Z" style="fill:rgb(196,25,25);"/>
                        </g>
                    </g>
                </g>
                <g transform="matrix(0.717952,0,0,0.717952,204.391,138.703)">
                    <g transform="matrix(0.497458,0,0,0.0512105,389.416,314.917)">
                        <path d="M507.376,3600.61L689.171,3600.61" style="fill:none;stroke:black;stroke-width:7.19px;"/>
                    </g>
                    <g transform="matrix(0.61904,0,0,0.61904,579.732,5.84414)">
                        <g>
                            <g transform="matrix(-0.678804,0.0993587,-0.681968,-0.0998219,4184.05,1327.69)">
                                <path d="M352.488,5453.59C332.825,5453.59 313.967,5461.4 300.063,5475.31L352.488,5527.73L352.488,5453.59Z" style="fill:rgb(25,196,196);"/>
                            </g>
                            <g transform="matrix(1.22364,0.179108,-1.22364,0.179108,3536.6,78.3596)">
                                <path d="M671.476,3377.3C648.627,3377.3 630.104,3395.82 630.104,3418.67C630.104,3441.5 648.642,3460.04 671.476,3460.04C694.326,3460.04 712.849,3441.52 712.849,3418.67L671.476,3418.67L671.476,3377.3Z" style="fill:rgb(204,98,49);"/>
                            </g>
                        </g>
                    </g>
                    <g transform="matrix(-0.469664,0.0687462,-0.471854,-0.0690667,3436.18,849.807)">
                        <path d="M352.488,5453.59C332.825,5453.59 313.967,5461.4 300.063,5475.31L352.488,5527.73L352.488,5453.59Z" style="fill:rgb(25,196,196);"/>
                    </g>
                </g>
                <g transform="matrix(0.779862,0,0,0.114151,418.238,-70.776)">
                    <path d="M249.639,5004.55L249.639,4996.6L264.585,4996.6L264.585,4985.85L279.313,5000.58L264.585,5015.3L264.585,5004.55L249.639,5004.55Z" style="stroke:white;stroke-width:1.26px;"/>
                </g>
            </g>
        </g>
    </g>
</svg>
