<?xml version="1.0" encoding="UTF-8" standalone="no"?>
<!DOCTYPE svg PUBLIC "-//W3C//DTD SVG 1.1//EN" "http://www.w3.org/Graphics/SVG/1.1/DTD/svg11.dtd">
<svg width="100%" height="100%" viewBox="0 0 823 63" version="1.1" xmlns="http://www.w3.org/2000/svg" xmlns:xlink="http://www.w3.org/1999/xlink" xml:space="preserve" xmlns:serif="http://www.serif.com/" style="fill-rule:evenodd;clip-rule:evenodd;stroke-linecap:round;stroke-linejoin:round;stroke-miterlimit:1.5;">
    <g transform="matrix(1,0,0,1,-577.059,-2969.85)">
        <g transform="matrix(1,0,0,6.83185,0,0)">
            <g transform="matrix(1,0,0,1,111.489,-68.2359)">
                <g transform="matrix(1,0,0,1,52.2781,-4.02198)">
                    <g transform="matrix(0.075928,0,0,0.0897591,810.909,188.355)">
                        <path d="M507.376,3600.61L689.171,3600.61" style="fill:none;stroke:black;stroke-width:5.08px;"/>
                    </g>
                    <g transform="matrix(0.779862,0,0,0.114151,282.439,109.02)">
                        <text x="727.452px" y="3518.33px" style="font-family:'FredokaOne-Regular', 'Fredoka One';font-size:30.775px;">1</text>
                    </g>
                    <g transform="matrix(0.779862,0,0,0.114151,282.303,113.307)">
                        <text x="727.452px" y="3518.33px" style="font-family:'FredokaOne-Regular', 'Fredoka One';font-size:30.775px;">6</text>
                    </g>
                </g>
                <g transform="matrix(0.667236,0,0,0.492167,505.31,164.329)">
                    <g transform="matrix(0.0780426,0,0,0.156037,954.931,132.3)">
                        <path d="M507.376,3600.61L689.171,3600.61" style="fill:none;stroke:black;stroke-width:6.07px;"/>
                    </g>
                    <g transform="matrix(0.715323,0,0,0.141948,251.702,193.57)">
                        <text x="902.56px" y="3569.71px" style="font-family:'FredokaOne-Regular', 'Fredoka One';font-size:50.284px;">0.0277</text>
                    </g>
                </g>
                <g transform="matrix(0.667236,0,0,0.492167,646.737,178.382)">
                    <g transform="matrix(0.0829123,0,0,0.156037,873.03,103.671)">
                        <path d="M507.376,3600.61L689.171,3600.61" style="fill:none;stroke:black;stroke-width:6.68px;"/>
                    </g>
                    <g transform="matrix(0.715323,0,0,0.141948,216.015,164.978)">
                        <text x="902.56px" y="3569.71px" style="font-family:'FredokaOne-Regular', 'Fredoka One';font-size:50.284px;">2.77%</text>
                    </g>
                </g>
                <g transform="matrix(0.779862,0,0,0.114151,314.684,103.16)">
                    <text x="714.7px" y="3548.99px" style="font-family:'FredokaOne-Regular', 'Fredoka One';font-size:30.775px;">=</text>
                </g>
                <g transform="matrix(0.779862,0,0,0.114151,520.728,103.16)">
                    <text x="714.7px" y="3548.99px" style="font-family:'FredokaOne-Regular', 'Fredoka One';font-size:30.775px;">=</text>
                </g>
                <g transform="matrix(0.779862,0,0,0.114151,448.975,103.16)">
                    <text x="714.7px" y="3548.99px" style="font-family:'FredokaOne-Regular', 'Fredoka One';font-size:30.775px;">=</text>
                </g>
                <g transform="matrix(0.779862,0,0,0.114151,638.418,103.16)">
                    <text x="714.7px" y="3548.99px" style="font-family:'FredokaOne-Regular', 'Fredoka One';font-size:30.775px;">=</text>
                </g>
                <g transform="matrix(1,0,0,1,40.7846,10.0494)">
                    <g transform="matrix(0.0721799,0,0,0.0897591,894.822,174.259)">
                        <path d="M507.376,3600.61L689.171,3600.61" style="fill:none;stroke:black;stroke-width:5.09px;"/>
                    </g>
                    <g transform="matrix(0.779862,0,0,0.114151,363.883,94.949)">
                        <text x="727.452px" y="3518.33px" style="font-family:'FredokaOne-Regular', 'Fredoka One';font-size:30.775px;">1</text>
                    </g>
                    <g transform="matrix(0.779862,0,0,0.114151,363.747,99.2357)">
                        <text x="727.452px" y="3518.33px" style="font-family:'FredokaOne-Regular', 'Fredoka One';font-size:30.775px;">6</text>
                    </g>
                </g>
                <g transform="matrix(1,0,0,1,-24.6635,-2.74252)">
                    <g transform="matrix(0.148785,0,0,0.0897591,982.378,187.002)">
                        <path d="M507.376,3600.61L689.171,3600.61" style="fill:none;stroke:black;stroke-width:4.98px;"/>
                    </g>
                    <g transform="matrix(0.779862,0,0,0.114151,498.899,107.796)">
                        <text x="727.452px" y="3518.33px" style="font-family:'FredokaOne-Regular', 'Fredoka One';font-size:30.775px;">1</text>
                    </g>
                    <g transform="matrix(0.779862,0,0,0.114151,490.467,111.973)">
                        <text x="727.452px" y="3518.33px" style="font-family:'FredokaOne-Regular', 'Fredoka One';font-size:30.775px;">36</text>
                    </g>
                </g>
                <g transform="matrix(0.241006,0,0,0.0352768,751.686,327.456)">
                    <text x="755.89px" y="5140.61px" style="font-family:'FredokaOne-Regular', 'Fredoka One';font-size:99.583px;">X</text>
                </g>
                <g transform="matrix(1,0,0,1,-229.445,71.9748)">
                    <g transform="matrix(0.872977,0,0,0.051311,481.646,250.703)">
                        <path d="M507.376,3600.61L689.171,3600.61" style="fill:none;stroke:black;stroke-width:3.34px;"/>
                    </g>
                    <g transform="matrix(0.326435,0,0,0.240786,884.693,266.874)">
                        <g transform="matrix(1,0,0,0.19844,-2.84217e-14,20.8226)">
                            <path d="M275.54,3461.67C275.54,3453.21 268.682,3446.35 260.223,3446.35C248.501,3446.35 232.408,3446.35 220.686,3446.35C212.227,3446.35 205.369,3453.21 205.369,3461.67C205.369,3473.39 205.369,3489.49 205.369,3501.21C205.369,3509.67 212.227,3516.53 220.686,3516.53C232.408,3516.53 248.501,3516.53 260.223,3516.53C268.682,3516.53 275.54,3509.67 275.54,3501.21C275.54,3489.49 275.54,3473.39 275.54,3461.67Z" style="fill:white;stroke:black;stroke-width:6.8px;"/>
                        </g>
                        <g>
                            <g transform="matrix(0.445538,-0.0884124,0.445538,0.0884124,-1444.63,413.367)">
                                <circle cx="228.309" cy="3578.11" r="12.145"/>
                            </g>
                            <g transform="matrix(0.445538,-0.0884124,0.445538,0.0884124,-1466.27,417.662)">
                                <circle cx="228.309" cy="3578.11" r="12.145"/>
                            </g>
                        </g>
                    </g>
                    <g transform="matrix(0.326435,0,0,0.240786,925.646,261.445)">
                        <g transform="matrix(1,0,0,0.19844,-2.84217e-14,20.8226)">
                            <path d="M275.54,3461.67C275.54,3453.21 268.682,3446.35 260.223,3446.35C248.501,3446.35 232.408,3446.35 220.686,3446.35C212.227,3446.35 205.369,3453.21 205.369,3461.67C205.369,3473.39 205.369,3489.49 205.369,3501.21C205.369,3509.67 212.227,3516.53 220.686,3516.53C232.408,3516.53 248.501,3516.53 260.223,3516.53C268.682,3516.53 275.54,3509.67 275.54,3501.21L275.54,3461.67Z" style="fill:white;stroke:black;stroke-width:6.8px;"/>
                        </g>
                        <g>
                            <g transform="matrix(0.445538,-0.0884124,0.445538,0.0884124,-1444.63,413.367)">
                                <circle cx="228.309" cy="3578.11" r="12.145"/>
                            </g>
                            <g transform="matrix(0.445538,-0.0884124,0.445538,0.0884124,-1466.27,417.662)">
                                <circle cx="228.309" cy="3578.11" r="12.145"/>
                            </g>
                        </g>
                    </g>
                    <g transform="matrix(0.326435,0,0,0.240786,883.538,266.859)">
                        <g transform="matrix(1,0,0,0.19844,86.7384,20.8854)">
                            <path d="M275.54,3461.67C275.54,3453.21 268.682,3446.35 260.223,3446.35C248.501,3446.35 232.408,3446.35 220.686,3446.35C212.227,3446.35 205.369,3453.21 205.369,3461.67C205.369,3473.39 205.369,3489.49 205.369,3501.21C205.369,3509.67 212.227,3516.53 220.686,3516.53C232.408,3516.53 248.501,3516.53 260.223,3516.53C268.682,3516.53 275.54,3509.67 275.54,3501.21C275.54,3489.49 275.54,3473.39 275.54,3461.67Z" style="fill:white;stroke:black;stroke-width:6.8px;"/>
                        </g>
                        <g>
                            <g transform="matrix(0.445538,-0.0884124,0.445538,0.0884124,-1368.71,415.577)">
                                <circle cx="228.309" cy="3578.11" r="12.145"/>
                            </g>
                            <g transform="matrix(0.445538,-0.0884124,0.445538,0.0884124,-1353.41,412.54)">
                                <circle cx="228.309" cy="3578.11" r="12.145"/>
                            </g>
                            <g transform="matrix(0.445538,-0.0884124,0.445538,0.0884124,-1384.01,418.613)">
                                <circle cx="228.309" cy="3578.11" r="12.145"/>
                            </g>
                        </g>
                    </g>
                    <g transform="matrix(0.326435,0,0,0.240786,940.047,262.716)">
                        <g transform="matrix(1,0,0,0.19844,-3.1712,38.0907)">
                            <path d="M275.54,3461.67C275.54,3453.21 268.682,3446.35 260.223,3446.35C248.501,3446.35 232.408,3446.35 220.686,3446.35C212.227,3446.35 205.369,3453.21 205.369,3461.67L205.369,3501.21C205.369,3509.67 212.227,3516.53 220.686,3516.53C232.408,3516.53 248.501,3516.53 260.223,3516.53C268.682,3516.53 275.54,3509.67 275.54,3501.21C275.54,3489.49 275.54,3473.39 275.54,3461.67Z" style="fill:white;stroke:black;stroke-width:6.8px;"/>
                        </g>
                        <g transform="matrix(1,0,0,1,-0.55019,9.02399e-14)">
                            <g transform="matrix(0.445538,-0.0884124,0.445538,0.0884124,-1443.22,429.944)">
                                <circle cx="228.309" cy="3578.11" r="12.145"/>
                            </g>
                            <g transform="matrix(0.445538,-0.0884124,0.445538,0.0884124,-1472.92,429.944)">
                                <circle cx="228.309" cy="3578.11" r="12.145"/>
                            </g>
                            <g transform="matrix(0.445538,-0.0884124,0.445538,0.0884124,-1472.92,435.62)">
                                <circle cx="228.309" cy="3578.11" r="12.145"/>
                            </g>
                            <g transform="matrix(0.445538,-0.0884124,0.445538,0.0884124,-1443.22,435.62)">
                                <circle cx="228.309" cy="3578.11" r="12.145"/>
                            </g>
                        </g>
                    </g>
                    <g transform="matrix(0.326435,0,0,0.240786,937.616,262.695)">
                        <g transform="matrix(1,0,0,0.19844,87.4761,38.1785)">
                            <path d="M275.54,3461.67C275.54,3453.21 268.682,3446.35 260.223,3446.35C248.501,3446.35 232.408,3446.35 220.686,3446.35C212.227,3446.35 205.369,3453.21 205.369,3461.67C205.369,3473.39 205.369,3489.49 205.369,3501.21C205.369,3509.67 212.227,3516.53 220.686,3516.53C232.408,3516.53 248.501,3516.53 260.223,3516.53C268.682,3516.53 275.54,3509.67 275.54,3501.21C275.54,3489.49 275.54,3473.39 275.54,3461.67Z" style="fill:white;stroke:black;stroke-width:6.8px;"/>
                        </g>
                        <g>
                            <g transform="matrix(1,0,0,1,-0.55019,0)">
                                <g transform="matrix(0.445538,-0.0884124,0.445538,0.0884124,-1352.57,430.032)">
                                    <circle cx="228.309" cy="3578.11" r="12.145"/>
                                </g>
                                <g transform="matrix(0.445538,-0.0884124,0.445538,0.0884124,-1382.28,430.032)">
                                    <circle cx="228.309" cy="3578.11" r="12.145"/>
                                </g>
                                <g transform="matrix(0.445538,-0.0884124,0.445538,0.0884124,-1382.28,435.708)">
                                    <circle cx="228.309" cy="3578.11" r="12.145"/>
                                </g>
                                <g transform="matrix(0.445538,-0.0884124,0.445538,0.0884124,-1352.57,435.708)">
                                    <circle cx="228.309" cy="3578.11" r="12.145"/>
                                </g>
                            </g>
                            <g transform="matrix(0.445538,-0.0884124,0.445538,0.0884124,-1367.98,432.87)">
                                <circle cx="228.309" cy="3578.11" r="12.145"/>
                            </g>
                        </g>
                    </g>
                    <g transform="matrix(0.326435,0,0,0.240786,940.757,266.921)">
                        <g transform="matrix(1,0,0,0.19844,161.055,20.6292)">
                            <path d="M275.54,3461.67C275.54,3453.21 268.682,3446.35 260.223,3446.35C248.501,3446.35 232.408,3446.35 220.686,3446.35C212.227,3446.35 205.369,3453.21 205.369,3461.67L205.369,3501.21C205.369,3509.67 212.227,3516.53 220.686,3516.53C232.408,3516.53 248.501,3516.53 260.223,3516.53C268.682,3516.53 275.54,3509.67 275.54,3501.21C275.54,3489.49 275.54,3473.39 275.54,3461.67Z" style="fill:white;stroke:black;stroke-width:6.8px;"/>
                        </g>
                        <g transform="matrix(1,0,0,1,-0.55019,-0.0529053)">
                            <g transform="matrix(0.445538,-0.0884124,0.445538,0.0884124,-1278.99,411.385)">
                                <circle cx="228.309" cy="3578.11" r="12.145"/>
                            </g>
                            <g transform="matrix(0.445538,-0.0884124,0.445538,0.0884124,-1278.99,415.374)">
                                <circle cx="228.309" cy="3578.11" r="12.145"/>
                            </g>
                            <g transform="matrix(0.445538,-0.0884124,0.445538,0.0884124,-1308.7,411.385)">
                                <circle cx="228.309" cy="3578.11" r="12.145"/>
                            </g>
                            <g transform="matrix(0.445538,-0.0884124,0.445538,0.0884124,-1308.7,419.362)">
                                <circle cx="228.309" cy="3578.11" r="12.145"/>
                            </g>
                            <g transform="matrix(0.445538,-0.0884124,0.445538,0.0884124,-1308.7,415.374)">
                                <circle cx="228.309" cy="3578.11" r="12.145"/>
                            </g>
                            <g transform="matrix(0.445538,-0.0884124,0.445538,0.0884124,-1278.99,419.362)">
                                <circle cx="228.309" cy="3578.11" r="12.145"/>
                            </g>
                        </g>
                    </g>
                    <g transform="matrix(0.326435,0,0,0.240786,857.534,271.888)">
                        <g transform="matrix(1,0,0,0.19844,0,0)">
                            <path d="M275.54,3461.67C275.54,3453.21 268.682,3446.35 260.223,3446.35C248.501,3446.35 232.408,3446.35 220.686,3446.35C212.227,3446.35 205.369,3453.21 205.369,3461.67C205.369,3473.39 205.369,3489.49 205.369,3501.21C205.369,3509.67 212.227,3516.53 220.686,3516.53C232.408,3516.53 248.501,3516.53 260.223,3516.53C268.682,3516.53 275.54,3509.67 275.54,3501.21C275.54,3489.49 275.54,3473.39 275.54,3461.67Z" style="fill:white;stroke:black;stroke-width:6.8px;"/>
                        </g>
                        <g transform="matrix(0.630086,0,0,0.125034,96.5998,243.47)">
                            <circle cx="228.309" cy="3578.11" r="12.145"/>
                        </g>
                    </g>
                </g>
                <g transform="matrix(1,0,0,1,-248.962,72.011)">
                    <g transform="matrix(0.884241,0,0,0.051973,266.999,248.225)">
                        <path d="M507.376,3600.61L689.171,3600.61" style="fill:none;stroke:black;stroke-width:3.3px;"/>
                    </g>
                    <g transform="matrix(0.330647,0,0,0.243892,718.666,264.298)">
                        <g transform="matrix(1,0,0,0.19844,0,0)">
                            <path d="M275.54,3461.48C275.54,3453.13 268.769,3446.35 260.418,3446.35C248.615,3446.35 232.294,3446.35 220.491,3446.35C212.139,3446.35 205.369,3453.13 205.369,3461.48L205.369,3501.4C205.369,3509.76 212.139,3516.53 220.491,3516.53C232.294,3516.53 248.615,3516.53 260.418,3516.53C268.769,3516.53 275.54,3509.76 275.54,3501.4C275.54,3489.6 275.54,3473.28 275.54,3461.48Z" style="fill:white;stroke:black;stroke-width:6.72px;"/>
                        </g>
                        <g transform="matrix(0.630086,0,0,0.125034,96.5998,243.47)">
                            <circle cx="228.309" cy="3578.11" r="12.145"/>
                        </g>
                    </g>
                    <g transform="matrix(0.330647,0,0,0.243892,675.247,264.606)">
                        <g transform="matrix(1,0,0,0.19844,-2.84217e-14,20.8226)">
                            <path d="M275.54,3461.48C275.54,3453.13 268.769,3446.35 260.418,3446.35C248.615,3446.35 232.294,3446.35 220.491,3446.35C212.139,3446.35 205.369,3453.13 205.369,3461.48L205.369,3501.4C205.369,3509.76 212.139,3516.53 220.491,3516.53C232.294,3516.53 248.615,3516.53 260.418,3516.53C268.769,3516.53 275.54,3509.76 275.54,3501.4C275.54,3489.6 275.54,3473.28 275.54,3461.48Z" style="fill:white;stroke:black;stroke-width:6.72px;"/>
                        </g>
                        <g>
                            <g transform="matrix(0.445538,-0.0884124,0.445538,0.0884124,-1444.63,413.367)">
                                <circle cx="228.309" cy="3578.11" r="12.145"/>
                            </g>
                            <g transform="matrix(0.445538,-0.0884124,0.445538,0.0884124,-1466.27,417.662)">
                                <circle cx="228.309" cy="3578.11" r="12.145"/>
                            </g>
                        </g>
                    </g>
                    <g transform="matrix(0.330647,0,0,0.243892,674.077,264.59)">
                        <g transform="matrix(1,0,0,0.19844,86.7384,20.8854)">
                            <path d="M275.54,3461.48C275.54,3453.13 268.769,3446.35 260.418,3446.35C248.615,3446.35 232.294,3446.35 220.491,3446.35C212.139,3446.35 205.369,3453.13 205.369,3461.48L205.369,3501.4C205.369,3509.76 212.139,3516.53 220.491,3516.53C232.294,3516.53 248.615,3516.53 260.418,3516.53C268.769,3516.53 275.54,3509.76 275.54,3501.4C275.54,3489.6 275.54,3473.28 275.54,3461.48Z" style="fill:white;stroke:black;stroke-width:6.72px;"/>
                        </g>
                        <g>
                            <g transform="matrix(0.445538,-0.0884124,0.445538,0.0884124,-1368.71,415.577)">
                                <circle cx="228.309" cy="3578.11" r="12.145"/>
                            </g>
                            <g transform="matrix(0.445538,-0.0884124,0.445538,0.0884124,-1353.41,412.54)">
                                <circle cx="228.309" cy="3578.11" r="12.145"/>
                            </g>
                            <g transform="matrix(0.445538,-0.0884124,0.445538,0.0884124,-1384.01,418.613)">
                                <circle cx="228.309" cy="3578.11" r="12.145"/>
                            </g>
                        </g>
                    </g>
                    <g transform="matrix(0.330647,0,0,0.243892,731.315,260.394)">
                        <g transform="matrix(1,0,0,0.19844,-3.1712,38.0907)">
                            <path d="M275.54,3461.48C275.54,3453.13 268.769,3446.35 260.418,3446.35C248.615,3446.35 232.294,3446.35 220.491,3446.35C212.139,3446.35 205.369,3453.13 205.369,3461.48L205.369,3501.4C205.369,3509.76 212.139,3516.53 220.491,3516.53C232.294,3516.53 248.615,3516.53 260.418,3516.53C268.769,3516.53 275.54,3509.76 275.54,3501.4C275.54,3489.6 275.54,3473.28 275.54,3461.48Z" style="fill:white;stroke:black;stroke-width:6.72px;"/>
                        </g>
                        <g transform="matrix(1,0,0,1,-0.55019,9.02399e-14)">
                            <g transform="matrix(0.445538,-0.0884124,0.445538,0.0884124,-1443.22,429.944)">
                                <circle cx="228.309" cy="3578.11" r="12.145"/>
                            </g>
                            <g transform="matrix(0.445538,-0.0884124,0.445538,0.0884124,-1472.92,429.944)">
                                <circle cx="228.309" cy="3578.11" r="12.145"/>
                            </g>
                            <g transform="matrix(0.445538,-0.0884124,0.445538,0.0884124,-1472.92,435.62)">
                                <circle cx="228.309" cy="3578.11" r="12.145"/>
                            </g>
                            <g transform="matrix(0.445538,-0.0884124,0.445538,0.0884124,-1443.22,435.62)">
                                <circle cx="228.309" cy="3578.11" r="12.145"/>
                            </g>
                        </g>
                    </g>
                    <g transform="matrix(0.330647,0,0,0.243892,728.853,260.373)">
                        <g transform="matrix(1,0,0,0.19844,87.4761,38.1785)">
                            <path d="M275.54,3461.48C275.54,3453.13 268.769,3446.35 260.418,3446.35C248.615,3446.35 232.294,3446.35 220.491,3446.35C212.139,3446.35 205.369,3453.13 205.369,3461.48L205.369,3501.4C205.369,3509.76 212.139,3516.53 220.491,3516.53C232.294,3516.53 248.615,3516.53 260.418,3516.53C268.769,3516.53 275.54,3509.76 275.54,3501.4C275.54,3489.6 275.54,3473.28 275.54,3461.48Z" style="fill:white;stroke:black;stroke-width:6.72px;"/>
                        </g>
                        <g>
                            <g transform="matrix(1,0,0,1,-0.55019,0)">
                                <g transform="matrix(0.445538,-0.0884124,0.445538,0.0884124,-1352.57,430.032)">
                                    <circle cx="228.309" cy="3578.11" r="12.145"/>
                                </g>
                                <g transform="matrix(0.445538,-0.0884124,0.445538,0.0884124,-1382.28,430.032)">
                                    <circle cx="228.309" cy="3578.11" r="12.145"/>
                                </g>
                                <g transform="matrix(0.445538,-0.0884124,0.445538,0.0884124,-1382.28,435.708)">
                                    <circle cx="228.309" cy="3578.11" r="12.145"/>
                                </g>
                                <g transform="matrix(0.445538,-0.0884124,0.445538,0.0884124,-1352.57,435.708)">
                                    <circle cx="228.309" cy="3578.11" r="12.145"/>
                                </g>
                            </g>
                            <g transform="matrix(0.445538,-0.0884124,0.445538,0.0884124,-1367.98,432.87)">
                                <circle cx="228.309" cy="3578.11" r="12.145"/>
                            </g>
                        </g>
                    </g>
                    <g transform="matrix(0.330647,0,0,0.243892,732.034,264.653)">
                        <g transform="matrix(1,0,0,0.19844,161.055,20.6292)">
                            <path d="M275.54,3461.48C275.54,3453.13 268.769,3446.35 260.418,3446.35C248.615,3446.35 232.294,3446.35 220.491,3446.35C212.139,3446.35 205.369,3453.13 205.369,3461.48L205.369,3501.4C205.369,3509.76 212.139,3516.53 220.491,3516.53C232.294,3516.53 248.615,3516.53 260.418,3516.53C268.769,3516.53 275.54,3509.76 275.54,3501.4C275.54,3489.6 275.54,3473.28 275.54,3461.48Z" style="fill:white;stroke:black;stroke-width:6.72px;"/>
                        </g>
                        <g transform="matrix(1,0,0,1,-0.55019,-0.0529053)">
                            <g transform="matrix(0.445538,-0.0884124,0.445538,0.0884124,-1278.99,411.385)">
                                <circle cx="228.309" cy="3578.11" r="12.145"/>
                            </g>
                            <g transform="matrix(0.445538,-0.0884124,0.445538,0.0884124,-1278.99,415.374)">
                                <circle cx="228.309" cy="3578.11" r="12.145"/>
                            </g>
                            <g transform="matrix(0.445538,-0.0884124,0.445538,0.0884124,-1308.7,411.385)">
                                <circle cx="228.309" cy="3578.11" r="12.145"/>
                            </g>
                            <g transform="matrix(0.445538,-0.0884124,0.445538,0.0884124,-1308.7,419.362)">
                                <circle cx="228.309" cy="3578.11" r="12.145"/>
                            </g>
                            <g transform="matrix(0.445538,-0.0884124,0.445538,0.0884124,-1308.7,415.374)">
                                <circle cx="228.309" cy="3578.11" r="12.145"/>
                            </g>
                            <g transform="matrix(0.445538,-0.0884124,0.445538,0.0884124,-1278.99,419.362)">
                                <circle cx="228.309" cy="3578.11" r="12.145"/>
                            </g>
                        </g>
                    </g>
                    <g transform="matrix(0.330647,0,0,0.243892,647.737,269.684)">
                        <g transform="matrix(1,0,0,0.19844,0,0)">
                            <path d="M275.54,3461.48C275.54,3453.13 268.769,3446.35 260.418,3446.35C248.615,3446.35 232.294,3446.35 220.491,3446.35C212.139,3446.35 205.369,3453.13 205.369,3461.48L205.369,3501.4C205.369,3509.76 212.139,3516.53 220.491,3516.53L260.418,3516.53C268.769,3516.53 275.54,3509.76 275.54,3501.4L275.54,3461.48Z" style="fill:white;stroke:black;stroke-width:6.72px;"/>
                        </g>
                        <g transform="matrix(0.630086,0,0,0.125034,96.5998,243.47)">
                            <circle cx="228.309" cy="3578.11" r="12.145"/>
                        </g>
                    </g>
                </g>
                <g transform="matrix(0.779862,0,0,0.114151,450.703,-63.324)">
                    <path d="M249.639,5004.55L249.639,4996.6L264.585,4996.6L264.585,4985.85L279.313,5000.58L264.585,5015.3L264.585,5004.55L249.639,5004.55Z" style="stroke:white;stroke-width:1.26px;"/>
                </g>
            </g>
        </g>
    </g>
</svg>
