<?xml version="1.0" encoding="UTF-8" standalone="no"?>
<!DOCTYPE svg PUBLIC "-//W3C//DTD SVG 1.1//EN" "http://www.w3.org/Graphics/SVG/1.1/DTD/svg11.dtd">
<svg width="100%" height="100%" viewBox="0 0 577 64" version="1.1" xmlns="http://www.w3.org/2000/svg" xmlns:xlink="http://www.w3.org/1999/xlink" xml:space="preserve" xmlns:serif="http://www.serif.com/" style="fill-rule:evenodd;clip-rule:evenodd;stroke-linecap:round;stroke-linejoin:round;stroke-miterlimit:1.5;">
    <g transform="matrix(1,0,0,1,-524.226,-3200.53)">
        <g transform="matrix(1,0,0,6.83185,0,0)">
            <g transform="matrix(1,0,0,1,-209.57,-69.7886)">
                <g transform="matrix(0.779862,0,0,0.114151,307.748,139.229)">
                    <text x="727.452px" y="3518.33px" style="font-family:'FredokaOne-Regular', 'Fredoka One';font-size:30.775px;">n!</text>
                </g>
                <g transform="matrix(0.779862,0,0,0.114151,277.388,145.111)">
                    <text x="727.452px" y="3518.33px" style="font-family:'FredokaOne-Regular', 'Fredoka One';font-size:30.775px;">(n-k)!k!</text>
                </g>
                <g transform="matrix(0.416101,0,0,0.114151,531.448,-59.812)">
                    <path d="M754.556,5278.13L947.374,5278.13" style="fill:none;stroke:black;stroke-width:5.39px;"/>
                </g>
            </g>
        </g>
        <g transform="matrix(1,0,0,6.83185,0,0)">
            <g transform="matrix(0.779862,0,0,0.114151,-43.6858,72.4482)">
                <text x="727.452px" y="3518.33px" style="font-family:'FredokaOne-Regular', 'Fredoka One';font-size:30.775px;">C(n,p)</text>
            </g>
        </g>
        <g transform="matrix(1,0,0,6.83185,0,0)">
            <g transform="matrix(1,0,0,1,0,0.635845)">
                <g transform="matrix(0.779862,0,0,0.114151,177.001,70.0189)">
                    <text x="727.452px" y="3518.33px" style="font-family:'FredokaOne-Regular', 'Fredoka One';font-size:30.775px;">n = possibl<tspan x="878.679px " y="3518.33px ">e</tspan> out<tspan x="954.415px " y="3518.33px ">c</tspan>omes</text>
                </g>
                <g transform="matrix(0.779862,0,0,0.114151,177.001,74.361)">
                    <text x="727.452px" y="3518.33px" style="font-family:'FredokaOne-Regular', 'Fredoka One';font-size:30.775px;">k = out<tspan x="824.546px " y="3518.33px ">c</tspan>omes w<tspan x="949.368px " y="3518.33px ">e</tspan> need to sel<tspan x="1137.4px 1155.04px 1170.64px " y="3518.33px 3518.33px 3518.33px ">ect</tspan></text>
                </g>
            </g>
        </g>
    </g>
</svg>
