<?xml version="1.0" encoding="UTF-8" standalone="no"?>
<!DOCTYPE svg PUBLIC "-//W3C//DTD SVG 1.1//EN" "http://www.w3.org/Graphics/SVG/1.1/DTD/svg11.dtd">
<svg width="100%" height="100%" viewBox="0 0 415 63" version="1.1" xmlns="http://www.w3.org/2000/svg" xmlns:xlink="http://www.w3.org/1999/xlink" xml:space="preserve" xmlns:serif="http://www.serif.com/" style="fill-rule:evenodd;clip-rule:evenodd;stroke-linecap:round;stroke-linejoin:round;stroke-miterlimit:1.5;">
    <g transform="matrix(1,0,0,1,-894.432,-2406.26)">
        <g transform="matrix(1,0,0,6.83185,0,0)">
            <g transform="matrix(1,0,0,1,176.694,0.616927)">
                <g transform="matrix(1,0,0,1,-3.09229,-7.9081)">
                    <g transform="matrix(0.842854,0,9.57439e-19,0.0511796,297.073,179.723)">
                        <path d="M507.376,3600.61L689.171,3600.61" style="fill:none;stroke:black;stroke-width:3.44px;"/>
                    </g>
                    <g transform="matrix(0.3256,0,-7.91295e-18,0.240169,655.072,200.854)">
                        <g transform="matrix(1,0,0,0.19844,0,0)">
                            <path d="M275.54,3461.71C275.54,3453.23 268.664,3446.35 260.183,3446.35L220.725,3446.35C212.244,3446.35 205.369,3453.23 205.369,3461.71L205.369,3501.17C205.369,3509.65 212.244,3516.53 220.725,3516.53L260.183,3516.53C268.664,3516.53 275.54,3509.65 275.54,3501.17L275.54,3461.71Z" style="fill:white;stroke:black;stroke-width:6.82px;"/>
                        </g>
                        <g transform="matrix(0.630086,0,0,0.125034,96.5998,243.47)">
                            <circle cx="228.309" cy="3578.11" r="12.145"/>
                        </g>
                    </g>
                    <g transform="matrix(0.3256,0,-7.91295e-18,0.240169,682.162,195.853)">
                        <g transform="matrix(1,0,0,0.19844,-2.84217e-14,20.8226)">
                            <path d="M275.54,3461.71C275.54,3453.23 268.664,3446.35 260.183,3446.35L220.725,3446.35C212.244,3446.35 205.369,3453.23 205.369,3461.71L205.369,3501.17C205.369,3509.65 212.244,3516.53 220.725,3516.53C232.431,3516.53 248.478,3516.53 260.183,3516.53C268.664,3516.53 275.54,3509.65 275.54,3501.17C275.54,3489.46 275.54,3473.42 275.54,3461.71Z" style="fill:white;stroke:black;stroke-width:6.82px;"/>
                        </g>
                        <g>
                            <g transform="matrix(0.445538,-0.0884124,0.445538,0.0884124,-1444.63,413.367)">
                                <circle cx="228.309" cy="3578.11" r="12.145"/>
                            </g>
                            <g transform="matrix(0.445538,-0.0884124,0.445538,0.0884124,-1466.27,417.662)">
                                <circle cx="228.309" cy="3578.11" r="12.145"/>
                            </g>
                        </g>
                    </g>
                    <g transform="matrix(0.3256,0,-7.91295e-18,0.240169,681.01,195.838)">
                        <g transform="matrix(1,0,0,0.19844,86.7384,20.8854)">
                            <path d="M275.54,3461.71C275.54,3453.23 268.664,3446.35 260.183,3446.35L220.725,3446.35C212.244,3446.35 205.369,3453.23 205.369,3461.71L205.369,3501.17C205.369,3509.65 212.244,3516.53 220.725,3516.53C232.431,3516.53 248.478,3516.53 260.183,3516.53C268.664,3516.53 275.54,3509.65 275.54,3501.17C275.54,3489.46 275.54,3473.42 275.54,3461.71Z" style="fill:white;stroke:black;stroke-width:6.82px;"/>
                        </g>
                        <g>
                            <g transform="matrix(0.445538,-0.0884124,0.445538,0.0884124,-1368.71,415.577)">
                                <circle cx="228.309" cy="3578.11" r="12.145"/>
                            </g>
                            <g transform="matrix(0.445538,-0.0884124,0.445538,0.0884124,-1353.41,412.54)">
                                <circle cx="228.309" cy="3578.11" r="12.145"/>
                            </g>
                            <g transform="matrix(0.445538,-0.0884124,0.445538,0.0884124,-1384.01,418.613)">
                                <circle cx="228.309" cy="3578.11" r="12.145"/>
                            </g>
                        </g>
                    </g>
                    <g transform="matrix(0.3256,0,-7.91295e-18,0.240169,737.375,191.706)">
                        <g transform="matrix(1,0,0,0.19844,-3.1712,38.0907)">
                            <path d="M275.54,3461.71C275.54,3453.23 268.664,3446.35 260.183,3446.35L220.725,3446.35C212.244,3446.35 205.369,3453.23 205.369,3461.71L205.369,3501.17C205.369,3509.65 212.244,3516.53 220.725,3516.53C232.431,3516.53 248.478,3516.53 260.183,3516.53C268.664,3516.53 275.54,3509.65 275.54,3501.17C275.54,3489.46 275.54,3473.42 275.54,3461.71Z" style="fill:white;stroke:black;stroke-width:6.82px;"/>
                        </g>
                        <g transform="matrix(1,0,0,1,-0.55019,9.02399e-14)">
                            <g transform="matrix(0.445538,-0.0884124,0.445538,0.0884124,-1443.22,429.944)">
                                <circle cx="228.309" cy="3578.11" r="12.145"/>
                            </g>
                            <g transform="matrix(0.445538,-0.0884124,0.445538,0.0884124,-1472.92,429.944)">
                                <circle cx="228.309" cy="3578.11" r="12.145"/>
                            </g>
                            <g transform="matrix(0.445538,-0.0884124,0.445538,0.0884124,-1472.92,435.62)">
                                <circle cx="228.309" cy="3578.11" r="12.145"/>
                            </g>
                            <g transform="matrix(0.445538,-0.0884124,0.445538,0.0884124,-1443.22,435.62)">
                                <circle cx="228.309" cy="3578.11" r="12.145"/>
                            </g>
                        </g>
                    </g>
                    <g transform="matrix(0.3256,0,-7.91295e-18,0.240169,734.95,191.685)">
                        <g transform="matrix(1,0,0,0.19844,87.4761,38.1785)">
                            <path d="M275.54,3461.71C275.54,3453.23 268.664,3446.35 260.183,3446.35L220.725,3446.35C212.244,3446.35 205.369,3453.23 205.369,3461.71L205.369,3501.17C205.369,3509.65 212.244,3516.53 220.725,3516.53C232.431,3516.53 248.478,3516.53 260.183,3516.53C268.664,3516.53 275.54,3509.65 275.54,3501.17C275.54,3489.46 275.54,3473.42 275.54,3461.71Z" style="fill:white;stroke:black;stroke-width:6.82px;"/>
                        </g>
                        <g>
                            <g transform="matrix(1,0,0,1,-0.55019,0)">
                                <g transform="matrix(0.445538,-0.0884124,0.445538,0.0884124,-1352.57,430.032)">
                                    <circle cx="228.309" cy="3578.11" r="12.145"/>
                                </g>
                                <g transform="matrix(0.445538,-0.0884124,0.445538,0.0884124,-1382.28,430.032)">
                                    <circle cx="228.309" cy="3578.11" r="12.145"/>
                                </g>
                                <g transform="matrix(0.445538,-0.0884124,0.445538,0.0884124,-1382.28,435.708)">
                                    <circle cx="228.309" cy="3578.11" r="12.145"/>
                                </g>
                                <g transform="matrix(0.445538,-0.0884124,0.445538,0.0884124,-1352.57,435.708)">
                                    <circle cx="228.309" cy="3578.11" r="12.145"/>
                                </g>
                            </g>
                            <g transform="matrix(0.445538,-0.0884124,0.445538,0.0884124,-1367.98,432.87)">
                                <circle cx="228.309" cy="3578.11" r="12.145"/>
                            </g>
                        </g>
                    </g>
                    <g transform="matrix(0.3256,0,-7.91295e-18,0.240169,738.082,195.9)">
                        <g transform="matrix(1,0,0,0.19844,161.055,20.6292)">
                            <path d="M275.54,3461.71C275.54,3453.23 268.664,3446.35 260.183,3446.35L220.725,3446.35C212.244,3446.35 205.369,3453.23 205.369,3461.71L205.369,3501.17C205.369,3509.65 212.244,3516.53 220.725,3516.53L260.183,3516.53C268.664,3516.53 275.54,3509.65 275.54,3501.17L275.54,3461.71Z" style="fill:white;stroke:black;stroke-width:6.82px;"/>
                        </g>
                        <g transform="matrix(1,0,0,1,-0.55019,-0.0529053)">
                            <g transform="matrix(0.445538,-0.0884124,0.445538,0.0884124,-1278.99,411.385)">
                                <circle cx="228.309" cy="3578.11" r="12.145"/>
                            </g>
                            <g transform="matrix(0.445538,-0.0884124,0.445538,0.0884124,-1278.99,415.374)">
                                <circle cx="228.309" cy="3578.11" r="12.145"/>
                            </g>
                            <g transform="matrix(0.445538,-0.0884124,0.445538,0.0884124,-1308.7,411.385)">
                                <circle cx="228.309" cy="3578.11" r="12.145"/>
                            </g>
                            <g transform="matrix(0.445538,-0.0884124,0.445538,0.0884124,-1308.7,419.362)">
                                <circle cx="228.309" cy="3578.11" r="12.145"/>
                            </g>
                            <g transform="matrix(0.445538,-0.0884124,0.445538,0.0884124,-1308.7,415.374)">
                                <circle cx="228.309" cy="3578.11" r="12.145"/>
                            </g>
                            <g transform="matrix(0.445538,-0.0884124,0.445538,0.0884124,-1278.99,419.362)">
                                <circle cx="228.309" cy="3578.11" r="12.145"/>
                            </g>
                        </g>
                    </g>
                    <g transform="matrix(0.3256,0,-7.91295e-18,0.240169,693.586,190.415)">
                        <g transform="matrix(1,0,0,0.19844,-2.84217e-14,20.8226)">
                            <path d="M275.54,3461.71C275.54,3453.23 268.664,3446.35 260.183,3446.35L220.725,3446.35C212.244,3446.35 205.369,3453.23 205.369,3461.71C205.369,3473.42 205.369,3489.46 205.369,3501.17C205.369,3509.65 212.244,3516.53 220.725,3516.53L260.183,3516.53C268.664,3516.53 275.54,3509.65 275.54,3501.17L275.54,3461.71Z" style="fill:white;stroke:black;stroke-width:6.82px;"/>
                        </g>
                        <g>
                            <g transform="matrix(0.445538,-0.0884124,0.445538,0.0884124,-1444.63,413.367)">
                                <circle cx="228.309" cy="3578.11" r="12.145"/>
                            </g>
                            <g transform="matrix(0.445538,-0.0884124,0.445538,0.0884124,-1466.27,417.662)">
                                <circle cx="228.309" cy="3578.11" r="12.145"/>
                            </g>
                        </g>
                    </g>
                    <g transform="matrix(0.3256,0,-7.91295e-18,0.240169,723.78,186.268)">
                        <g transform="matrix(1,0,0,0.19844,-3.1712,38.0907)">
                            <path d="M275.54,3461.71C275.54,3453.23 268.664,3446.35 260.183,3446.35C248.478,3446.35 232.431,3446.35 220.725,3446.35C212.244,3446.35 205.369,3453.23 205.369,3461.71C205.369,3473.42 205.369,3489.46 205.369,3501.17C205.369,3509.65 212.244,3516.53 220.725,3516.53L260.183,3516.53C268.664,3516.53 275.54,3509.65 275.54,3501.17L275.54,3461.71Z" style="fill:white;stroke:black;stroke-width:6.82px;"/>
                        </g>
                        <g transform="matrix(1,0,0,1,-0.55019,9.02399e-14)">
                            <g transform="matrix(0.445538,-0.0884124,0.445538,0.0884124,-1443.22,429.944)">
                                <circle cx="228.309" cy="3578.11" r="12.145"/>
                            </g>
                            <g transform="matrix(0.445538,-0.0884124,0.445538,0.0884124,-1472.92,429.944)">
                                <circle cx="228.309" cy="3578.11" r="12.145"/>
                            </g>
                            <g transform="matrix(0.445538,-0.0884124,0.445538,0.0884124,-1472.92,435.62)">
                                <circle cx="228.309" cy="3578.11" r="12.145"/>
                            </g>
                            <g transform="matrix(0.445538,-0.0884124,0.445538,0.0884124,-1443.22,435.62)">
                                <circle cx="228.309" cy="3578.11" r="12.145"/>
                            </g>
                        </g>
                    </g>
                    <g transform="matrix(0.3256,0,-7.91295e-18,0.240169,699.47,190.462)">
                        <g transform="matrix(1,0,0,0.19844,161.055,20.6292)">
                            <path d="M275.54,3461.71C275.54,3453.23 268.664,3446.35 260.183,3446.35L220.725,3446.35C212.244,3446.35 205.369,3453.23 205.369,3461.71C205.369,3473.42 205.369,3489.46 205.369,3501.17C205.369,3509.65 212.244,3516.53 220.725,3516.53L260.183,3516.53C268.664,3516.53 275.54,3509.65 275.54,3501.17L275.54,3461.71Z" style="fill:white;stroke:black;stroke-width:6.82px;"/>
                        </g>
                        <g transform="matrix(1,0,0,1,-0.55019,-0.0529053)">
                            <g transform="matrix(0.445538,-0.0884124,0.445538,0.0884124,-1278.99,411.385)">
                                <circle cx="228.309" cy="3578.11" r="12.145"/>
                            </g>
                            <g transform="matrix(0.445538,-0.0884124,0.445538,0.0884124,-1278.99,415.374)">
                                <circle cx="228.309" cy="3578.11" r="12.145"/>
                            </g>
                            <g transform="matrix(0.445538,-0.0884124,0.445538,0.0884124,-1308.7,411.385)">
                                <circle cx="228.309" cy="3578.11" r="12.145"/>
                            </g>
                            <g transform="matrix(0.445538,-0.0884124,0.445538,0.0884124,-1308.7,419.362)">
                                <circle cx="228.309" cy="3578.11" r="12.145"/>
                            </g>
                            <g transform="matrix(0.445538,-0.0884124,0.445538,0.0884124,-1308.7,415.374)">
                                <circle cx="228.309" cy="3578.11" r="12.145"/>
                            </g>
                            <g transform="matrix(0.445538,-0.0884124,0.445538,0.0884124,-1278.99,419.362)">
                                <circle cx="228.309" cy="3578.11" r="12.145"/>
                            </g>
                        </g>
                    </g>
                </g>
                <g transform="matrix(1,0,0,1,-35.5485,-6.33839)">
                    <g transform="matrix(0.10855,0,0,0.0897591,914.309,39.3)">
                        <path d="M507.376,3600.61L689.171,3600.61" style="fill:none;stroke:black;stroke-width:5.04px;"/>
                    </g>
                    <g transform="matrix(0.779862,0,0,0.114151,404.644,-40.0089)">
                        <text x="727.452px" y="3518.33px" style="font-family:'FredokaOne-Regular', 'Fredoka One';font-size:30.775px;">3</text>
                    </g>
                    <g transform="matrix(0.779862,0,0,0.114151,404.597,-35.6895)">
                        <text x="727.452px" y="3518.33px" style="font-family:'FredokaOne-Regular', 'Fredoka One';font-size:30.775px;">6</text>
                    </g>
                </g>
                <g transform="matrix(0.477289,0,0,0.0698624,576.798,108.043)">
                    <text x="902.56px" y="3569.71px" style="font-family:'FredokaOne-Regular', 'Fredoka One';font-size:50.284px;">0.5</text>
                </g>
                <g transform="matrix(0.477289,0,0,0.0698624,654.782,108.085)">
                    <text x="902.56px" y="3569.71px" style="font-family:'FredokaOne-Regular', 'Fredoka One';font-size:50.284px;">50%</text>
                </g>
                <g transform="matrix(0.779862,0,0,0.114151,343.338,-48.1874)">
                    <text x="714.7px" y="3548.99px" style="font-family:'FredokaOne-Regular', 'Fredoka One';font-size:30.775px;">=</text>
                </g>
                <g transform="matrix(0.779862,0,0,0.114151,418.436,-48.1874)">
                    <text x="714.7px" y="3548.99px" style="font-family:'FredokaOne-Regular', 'Fredoka One';font-size:30.775px;">=</text>
                </g>
                <g transform="matrix(0.779862,0,0,0.114151,499.101,-48.1874)">
                    <text x="714.7px" y="3548.99px" style="font-family:'FredokaOne-Regular', 'Fredoka One';font-size:30.775px;">=</text>
                </g>
            </g>
        </g>
    </g>
</svg>
