<?xml version="1.0" encoding="UTF-8" standalone="no"?>
<!DOCTYPE svg PUBLIC "-//W3C//DTD SVG 1.1//EN" "http://www.w3.org/Graphics/SVG/1.1/DTD/svg11.dtd">
<svg width="100%" height="100%" viewBox="0 0 445 63" version="1.1" xmlns="http://www.w3.org/2000/svg" xmlns:xlink="http://www.w3.org/1999/xlink" xml:space="preserve" xmlns:serif="http://www.serif.com/" style="fill-rule:evenodd;clip-rule:evenodd;stroke-linecap:round;stroke-linejoin:round;stroke-miterlimit:1.5;">
    <g transform="matrix(1,0,0,1,-894.432,-2230.99)">
        <g transform="matrix(1,0,0,6.83185,0,0)">
            <g transform="matrix(1,0,0,1,174.447,-3.55174)">
                <g transform="matrix(1,0,0,1.00307,114.631,-3.20704)">
                    <g transform="matrix(0.881537,0,0,0.0518141,159.194,150.15)">
                        <path d="M507.376,3600.61L689.171,3600.61" style="fill:none;stroke:black;stroke-width:3.3px;"/>
                    </g>
                    <g transform="matrix(0.329636,0,0,0.243146,538.768,171.543)">
                        <g transform="matrix(1,0,0,0.19844,0,0)">
                            <path d="M275.54,3461.48C275.54,3453.13 268.749,3446.35 260.371,3446.35C248.587,3446.35 232.321,3446.35 220.537,3446.35C212.16,3446.35 205.369,3453.13 205.369,3461.48C205.369,3473.28 205.369,3489.6 205.369,3501.4C205.369,3509.76 212.16,3516.53 220.537,3516.53C232.321,3516.53 248.587,3516.53 260.371,3516.53C268.749,3516.53 275.54,3509.76 275.54,3501.4C275.54,3489.6 275.54,3473.28 275.54,3461.48Z" style="fill:white;stroke:black;stroke-width:6.73px;"/>
                        </g>
                        <g transform="matrix(0.630086,0,0,0.125034,96.5998,243.47)">
                            <circle cx="228.309" cy="3578.11" r="12.145"/>
                        </g>
                    </g>
                    <g transform="matrix(0.329636,0,0,0.243146,609.479,166.173)">
                        <g transform="matrix(1,0,0,0.19844,0,0)">
                            <path d="M275.54,3461.48C275.54,3453.13 268.749,3446.35 260.371,3446.35C248.587,3446.35 232.321,3446.35 220.537,3446.35C212.16,3446.35 205.369,3453.13 205.369,3461.48C205.369,3473.28 205.369,3489.6 205.369,3501.4C205.369,3509.76 212.16,3516.53 220.537,3516.53C232.321,3516.53 248.587,3516.53 260.371,3516.53C268.749,3516.53 275.54,3509.76 275.54,3501.4C275.54,3489.6 275.54,3473.28 275.54,3461.48Z" style="fill:white;stroke:black;stroke-width:6.73px;"/>
                        </g>
                        <g transform="matrix(0.630086,0,0,0.125034,96.5998,243.47)">
                            <circle cx="228.309" cy="3578.11" r="12.145"/>
                        </g>
                    </g>
                    <g transform="matrix(0.329636,0,0,0.243146,566.193,166.48)">
                        <g transform="matrix(1,0,0,0.19844,-2.84217e-14,20.8226)">
                            <path d="M275.54,3461.48C275.54,3453.13 268.749,3446.35 260.371,3446.35C248.587,3446.35 232.321,3446.35 220.537,3446.35C212.16,3446.35 205.369,3453.13 205.369,3461.48C205.369,3473.28 205.369,3489.6 205.369,3501.4C205.369,3509.76 212.16,3516.53 220.537,3516.53C232.321,3516.53 248.587,3516.53 260.371,3516.53C268.749,3516.53 275.54,3509.76 275.54,3501.4C275.54,3489.6 275.54,3473.28 275.54,3461.48Z" style="fill:white;stroke:black;stroke-width:6.73px;"/>
                        </g>
                        <g>
                            <g transform="matrix(0.445538,-0.0884124,0.445538,0.0884124,-1444.63,413.367)">
                                <circle cx="228.309" cy="3578.11" r="12.145"/>
                            </g>
                            <g transform="matrix(0.445538,-0.0884124,0.445538,0.0884124,-1466.27,417.662)">
                                <circle cx="228.309" cy="3578.11" r="12.145"/>
                            </g>
                        </g>
                    </g>
                    <g transform="matrix(0.329636,0,0,0.243146,565.027,166.465)">
                        <g transform="matrix(1,0,0,0.19844,86.7384,20.8854)">
                            <path d="M275.54,3461.48C275.54,3453.13 268.749,3446.35 260.371,3446.35C248.587,3446.35 232.321,3446.35 220.537,3446.35C212.16,3446.35 205.369,3453.13 205.369,3461.48C205.369,3473.28 205.369,3489.6 205.369,3501.4C205.369,3509.76 212.16,3516.53 220.537,3516.53C232.321,3516.53 248.587,3516.53 260.371,3516.53C268.749,3516.53 275.54,3509.76 275.54,3501.4C275.54,3489.6 275.54,3473.28 275.54,3461.48Z" style="fill:white;stroke:black;stroke-width:6.73px;"/>
                        </g>
                        <g>
                            <g transform="matrix(0.445538,-0.0884124,0.445538,0.0884124,-1368.71,415.577)">
                                <circle cx="228.309" cy="3578.11" r="12.145"/>
                            </g>
                            <g transform="matrix(0.445538,-0.0884124,0.445538,0.0884124,-1353.41,412.54)">
                                <circle cx="228.309" cy="3578.11" r="12.145"/>
                            </g>
                            <g transform="matrix(0.445538,-0.0884124,0.445538,0.0884124,-1384.01,418.613)">
                                <circle cx="228.309" cy="3578.11" r="12.145"/>
                            </g>
                        </g>
                    </g>
                    <g transform="matrix(0.329636,0,0,0.243146,622.09,162.281)">
                        <g transform="matrix(1,0,0,0.19844,-3.1712,38.0907)">
                            <path d="M275.54,3461.48C275.54,3453.13 268.749,3446.35 260.371,3446.35C248.587,3446.35 232.321,3446.35 220.537,3446.35C212.16,3446.35 205.369,3453.13 205.369,3461.48C205.369,3473.28 205.369,3489.6 205.369,3501.4C205.369,3509.76 212.16,3516.53 220.537,3516.53C232.321,3516.53 248.587,3516.53 260.371,3516.53C268.749,3516.53 275.54,3509.76 275.54,3501.4C275.54,3489.6 275.54,3473.28 275.54,3461.48Z" style="fill:white;stroke:black;stroke-width:6.73px;"/>
                        </g>
                        <g transform="matrix(1,0,0,1,-0.55019,9.02399e-14)">
                            <g transform="matrix(0.445538,-0.0884124,0.445538,0.0884124,-1443.22,429.944)">
                                <circle cx="228.309" cy="3578.11" r="12.145"/>
                            </g>
                            <g transform="matrix(0.445538,-0.0884124,0.445538,0.0884124,-1472.92,429.944)">
                                <circle cx="228.309" cy="3578.11" r="12.145"/>
                            </g>
                            <g transform="matrix(0.445538,-0.0884124,0.445538,0.0884124,-1472.92,435.62)">
                                <circle cx="228.309" cy="3578.11" r="12.145"/>
                            </g>
                            <g transform="matrix(0.445538,-0.0884124,0.445538,0.0884124,-1443.22,435.62)">
                                <circle cx="228.309" cy="3578.11" r="12.145"/>
                            </g>
                        </g>
                    </g>
                    <g transform="matrix(0.329636,0,0,0.243146,619.635,162.26)">
                        <g transform="matrix(1,0,0,0.19844,87.4761,38.1785)">
                            <path d="M275.54,3461.48C275.54,3453.13 268.749,3446.35 260.371,3446.35C248.587,3446.35 232.321,3446.35 220.537,3446.35C212.16,3446.35 205.369,3453.13 205.369,3461.48C205.369,3473.28 205.369,3489.6 205.369,3501.4C205.369,3509.76 212.16,3516.53 220.537,3516.53C232.321,3516.53 248.587,3516.53 260.371,3516.53C268.749,3516.53 275.54,3509.76 275.54,3501.4C275.54,3489.6 275.54,3473.28 275.54,3461.48Z" style="fill:white;stroke:black;stroke-width:6.73px;"/>
                        </g>
                        <g>
                            <g transform="matrix(1,0,0,1,-0.55019,0)">
                                <g transform="matrix(0.445538,-0.0884124,0.445538,0.0884124,-1352.57,430.032)">
                                    <circle cx="228.309" cy="3578.11" r="12.145"/>
                                </g>
                                <g transform="matrix(0.445538,-0.0884124,0.445538,0.0884124,-1382.28,430.032)">
                                    <circle cx="228.309" cy="3578.11" r="12.145"/>
                                </g>
                                <g transform="matrix(0.445538,-0.0884124,0.445538,0.0884124,-1382.28,435.708)">
                                    <circle cx="228.309" cy="3578.11" r="12.145"/>
                                </g>
                                <g transform="matrix(0.445538,-0.0884124,0.445538,0.0884124,-1352.57,435.708)">
                                    <circle cx="228.309" cy="3578.11" r="12.145"/>
                                </g>
                            </g>
                            <g transform="matrix(0.630086,0,-1.66533e-16,0.125034,184.076,281.648)">
                                <circle cx="228.309" cy="3578.11" r="12.145"/>
                            </g>
                        </g>
                    </g>
                    <g transform="matrix(0.329636,0,0,0.243146,622.807,166.527)">
                        <g transform="matrix(1,0,0,0.19844,161.055,20.6292)">
                            <path d="M275.54,3461.48C275.54,3453.13 268.749,3446.35 260.371,3446.35C248.587,3446.35 232.321,3446.35 220.537,3446.35C212.16,3446.35 205.369,3453.13 205.369,3461.48C205.369,3473.28 205.369,3489.6 205.369,3501.4C205.369,3509.76 212.16,3516.53 220.537,3516.53C232.321,3516.53 248.587,3516.53 260.371,3516.53C268.749,3516.53 275.54,3509.76 275.54,3501.4C275.54,3489.6 275.54,3473.28 275.54,3461.48Z" style="fill:white;stroke:black;stroke-width:6.73px;"/>
                        </g>
                        <g transform="matrix(1,0,0,1,-0.55019,-0.0529053)">
                            <g transform="matrix(0.445538,-0.0884124,0.445538,0.0884124,-1278.99,411.385)">
                                <circle cx="228.309" cy="3578.11" r="12.145"/>
                            </g>
                            <g transform="matrix(0.445538,-0.0884124,0.445538,0.0884124,-1278.99,415.374)">
                                <circle cx="228.309" cy="3578.11" r="12.145"/>
                            </g>
                            <g transform="matrix(0.445538,-0.0884124,0.445538,0.0884124,-1308.7,411.385)">
                                <circle cx="228.309" cy="3578.11" r="12.145"/>
                            </g>
                            <g transform="matrix(0.445538,-0.0884124,0.445538,0.0884124,-1308.7,419.362)">
                                <circle cx="228.309" cy="3578.11" r="12.145"/>
                            </g>
                            <g transform="matrix(0.445538,-0.0884124,0.445538,0.0884124,-1308.7,415.374)">
                                <circle cx="228.309" cy="3578.11" r="12.145"/>
                            </g>
                            <g transform="matrix(0.445538,-0.0884124,0.445538,0.0884124,-1278.99,419.362)">
                                <circle cx="228.309" cy="3578.11" r="12.145"/>
                            </g>
                        </g>
                    </g>
                </g>
                <g transform="matrix(1,0,0,1,103.551,-2.15776)">
                    <g transform="matrix(0.1072,0,0,0.0897591,771.622,13.6333)">
                        <path d="M507.376,3600.61L689.171,3600.61" style="fill:none;stroke:black;stroke-width:5.05px;"/>
                    </g>
                    <g transform="matrix(0.779862,0,0,0.114151,263.281,-65.7035)">
                        <text x="727.452px" y="3518.33px" style="font-family:'FredokaOne-Regular', 'Fredoka One';font-size:30.775px;">1</text>
                    </g>
                    <g transform="matrix(0.779862,0,0,0.114151,261.725,-61.3634)">
                        <text x="727.452px" y="3518.33px" style="font-family:'FredokaOne-Regular', 'Fredoka One';font-size:30.775px;">6</text>
                    </g>
                </g>
                <g transform="matrix(0.667236,0,0,0.492167,380.647,-8.22299)">
                    <g transform="matrix(0.0815352,0,0,0.156037,944.344,131.736)">
                        <path d="M507.376,3600.61L689.171,3600.61" style="fill:none;stroke:black;stroke-width:8.04px;"/>
                    </g>
                    <g transform="matrix(0.715323,0,0,0.141948,272.347,192.993)">
                        <text x="902.56px" y="3569.71px" style="font-family:'FredokaOne-Regular', 'Fredoka One';font-size:50.284px;">0.167</text>
                    </g>
                </g>
                <g transform="matrix(0.667236,0,0,0.492167,540.437,-7.51221)">
                    <g transform="matrix(0.0783973,0,0,0.156037,849.771,130.164)">
                        <path d="M507.376,3600.61L689.171,3600.61" style="fill:none;stroke:black;stroke-width:6.71px;"/>
                    </g>
                    <g transform="matrix(0.715323,0,0,0.141948,177.326,191.563)">
                        <text x="902.56px" y="3569.71px" style="font-family:'FredokaOne-Regular', 'Fredoka One';font-size:50.284px;">16.67%</text>
                    </g>
                </g>
                <g transform="matrix(0.303837,0,0,0.0444736,682.53,177.61)">
                    <text x="714.7px" y="3548.99px" style="font-family:'FredokaOne-Regular', 'Fredoka One';font-size:78.99px;">=</text>
                </g>
                <g transform="matrix(0.779862,0,0,0.114151,410.747,-69.6734)">
                    <text x="714.7px" y="3548.99px" style="font-family:'FredokaOne-Regular', 'Fredoka One';font-size:30.775px;">=</text>
                </g>
                <g transform="matrix(0.779862,0,0,0.114151,507.697,-69.6734)">
                    <text x="714.7px" y="3548.99px" style="font-family:'FredokaOne-Regular', 'Fredoka One';font-size:30.775px;">=</text>
                </g>
            </g>
        </g>
    </g>
</svg>
