<?xml version="1.0" encoding="UTF-8" standalone="no"?>
<!DOCTYPE svg PUBLIC "-//W3C//DTD SVG 1.1//EN" "http://www.w3.org/Graphics/SVG/1.1/DTD/svg11.dtd">
<svg width="100%" height="100%" viewBox="0 0 1149 62" version="1.1" xmlns="http://www.w3.org/2000/svg" xmlns:xlink="http://www.w3.org/1999/xlink" xml:space="preserve" xmlns:serif="http://www.serif.com/" style="fill-rule:evenodd;clip-rule:evenodd;stroke-linecap:round;stroke-linejoin:round;stroke-miterlimit:1.5;">
    <g transform="matrix(1,0,0,1,-386.417,-3740.15)">
        <g transform="matrix(1,0,0,6.83185,0,0)">
            <g transform="matrix(0.779862,0,0,0.114151,142.584,147.366)">
                <text x="714.7px" y="3548.99px" style="font-family:'FredokaOne-Regular', 'Fredoka One';font-size:30.775px;">=</text>
            </g>
        </g>
        <g transform="matrix(1,0,0,6.83185,0,0)">
            <g transform="matrix(0.779862,0,0,0.114151,377.641,146.998)">
                <text x="714.7px" y="3548.99px" style="font-family:'FredokaOne-Regular', 'Fredoka One';font-size:30.775px;">=</text>
            </g>
        </g>
        <g transform="matrix(1,0,0,6.83185,0,0)">
            <g transform="matrix(0.779862,0,0,0.114151,624.239,147.513)">
                <text x="714.7px" y="3548.99px" style="font-family:'FredokaOne-Regular', 'Fredoka One';font-size:30.775px;">=</text>
            </g>
        </g>
        <g transform="matrix(1,0,0,6.83185,0,0)">
            <g transform="matrix(0.779862,0,0,0.114151,830.403,147.639)">
                <text x="714.7px" y="3548.99px" style="font-family:'FredokaOne-Regular', 'Fredoka One';font-size:30.775px;">=</text>
            </g>
        </g>
        <g transform="matrix(1,0,0,6.83185,0,0)">
            <g transform="matrix(0.383939,0,0,0.0561984,570.578,353.028)">
                <text x="714.7px" y="3548.99px" style="font-family:'FredokaOne-Regular', 'Fredoka One';font-size:62.51px;">x</text>
            </g>
        </g>
        <g transform="matrix(1,0,0,6.83185,0,0)">
            <g transform="matrix(1,0,0,1,-57.6264,-72.3161)">
                <g transform="matrix(0.779862,0,0,0.114151,247.053,220.785)">
                    <text x="727.452px" y="3518.33px" style="font-family:'FredokaOne-Regular', 'Fredoka One';font-size:30.775px;">69!</text>
                </g>
                <g transform="matrix(0.779862,0,0,0.114151,216.657,226.412)">
                    <text x="727.452px" y="3518.33px" style="font-family:'FredokaOne-Regular', 'Fredoka One';font-size:30.775px;">(69-5)!5!</text>
                </g>
                <g transform="matrix(0.478585,0,0,0.114151,423.57,21.3592)">
                    <path d="M754.556,5278.13L947.374,5278.13" style="fill:none;stroke:black;stroke-width:5.21px;"/>
                </g>
            </g>
        </g>
        <g transform="matrix(1,0,0,6.83185,0,0)">
            <g transform="matrix(1,0,0,1,-181.12,-70.6125)">
                <g transform="matrix(0.779862,0,0,0.114151,583.681,219.752)">
                    <text x="727.452px" y="3518.33px" style="font-family:'FredokaOne-Regular', 'Fredoka One';font-size:30.775px;">65x66x67x68x69</text>
                </g>
                <g transform="matrix(0.779862,0,0,0.114151,617.965,224.766)">
                    <text x="727.452px" y="3518.33px" style="font-family:'FredokaOne-Regular', 'Fredoka One';font-size:30.775px;">1x2x3x4x5</text>
                </g>
                <g transform="matrix(0.972231,0,0,0.114151,417.99,19.9586)">
                    <path d="M754.556,5278.13L947.374,5278.13" style="fill:none;stroke:black;stroke-width:3.82px;"/>
                </g>
            </g>
        </g>
        <g transform="matrix(1,0,0,6.83185,0,0)">
            <g transform="matrix(1,0,0,1,-94.0914,-69.7933)">
                <g transform="matrix(0.779862,0,0,0.114151,741.268,218.916)">
                    <text x="727.452px" y="3518.33px" style="font-family:'FredokaOne-Regular', 'Fredoka One';font-size:30.775px;">1,348,621,560</text>
                </g>
                <g transform="matrix(0.779862,0,0,0.114151,795.904,223.947)">
                    <text x="727.452px" y="3518.33px" style="font-family:'FredokaOne-Regular', 'Fredoka One';font-size:30.775px;">120</text>
                </g>
                <g transform="matrix(0.760685,0,0,0.114151,735.575,19.2649)">
                    <path d="M754.556,5278.13L947.374,5278.13" style="fill:none;stroke:black;stroke-width:4.37px;"/>
                </g>
            </g>
        </g>
        <g transform="matrix(1,0,0,6.83185,0,0)">
            <g transform="matrix(1,0,0,1,-317.153,-70.2375)">
                <g transform="matrix(0.571813,0,0,0.114151,1309.02,19.7092)">
                    <path d="M754.556,5278.13L947.374,5278.13" style="fill:none;stroke:black;stroke-width:4.93px;"/>
                </g>
                <g transform="matrix(0.779862,0,0,0.114151,595.649,-90.6915)">
                    <text x="1467.53px" y="6274.1px" style="font-family:'FredokaOne-Regular', 'Fredoka One';font-size:30.775px;">11,238,513</text>
                </g>
                <g transform="matrix(0.779862,0,0,0.114151,646.553,-95.2619)">
                    <text x="1467.53px" y="6274.1px" style="font-family:'FredokaOne-Regular', 'Fredoka One';font-size:30.775px;">1</text>
                </g>
            </g>
        </g>
        <g transform="matrix(1,0,0,6.83185,0,0)">
            <g transform="matrix(1,0,0,1,-125.276,-72.7931)">
                <g transform="matrix(0.779862,0,0,0.114151,451.071,221.616)">
                    <text x="727.452px" y="3518.33px" style="font-family:'FredokaOne-Regular', 'Fredoka One';font-size:30.775px;">1</text>
                </g>
                <g transform="matrix(0.779862,0,0,0.114151,441.723,226.355)">
                    <text x="727.452px" y="3518.33px" style="font-family:'FredokaOne-Regular', 'Fredoka One';font-size:30.775px;">26</text>
                </g>
                <g transform="matrix(0.139281,0,0,0.114151,904.54,21.6238)">
                    <path d="M754.556,5278.13L947.374,5278.13" style="fill:none;stroke:black;stroke-width:6.02px;"/>
                </g>
            </g>
        </g>
        <g transform="matrix(1,0,0,6.83185,0,0)">
            <g transform="matrix(1,0,0,1,104.91,-71.7228)">
                <g>
                    <g transform="matrix(0.306212,0,0,0.0448212,262.806,356.013)">
                        <circle cx="131.042" cy="5966.2" r="69.97" style="fill:rgb(25,196,196);"/>
                    </g>
                    <g transform="matrix(0.239791,0,0,0.0350989,273.292,413.084)">
                        <text x="76.863px" y="6008.08px" style="font-family:'FredokaOne-Regular', 'Fredoka One';font-size:41.703px;fill:white;">1-69</text>
                    </g>
                </g>
                <g>
                    <g transform="matrix(0.306212,0,0,0.0448212,455.073,356.013)">
                        <circle cx="131.042" cy="5966.2" r="69.97" style="fill:rgb(25,196,196);"/>
                    </g>
                    <g transform="matrix(0.239791,0,0,0.0350989,467.019,413.084)">
                        <text x="76.863px" y="6008.08px" style="font-family:'FredokaOne-Regular', 'Fredoka One';font-size:41.703px;fill:white;">1-69</text>
                    </g>
                </g>
                <g>
                    <g transform="matrix(0.306212,0,0,0.0448212,310.873,356.013)">
                        <circle cx="131.042" cy="5966.2" r="69.97" style="fill:rgb(25,196,196);"/>
                    </g>
                    <g transform="matrix(0.239791,0,0,0.0350989,322.818,413.084)">
                        <text x="76.863px" y="6008.08px" style="font-family:'FredokaOne-Regular', 'Fredoka One';font-size:41.703px;fill:white;">1-69</text>
                    </g>
                </g>
                <g>
                    <g transform="matrix(0.306212,0,0,0.0448212,358.94,356.013)">
                        <circle cx="131.042" cy="5966.2" r="69.97" style="fill:rgb(25,196,196);"/>
                    </g>
                    <g transform="matrix(0.239791,0,0,0.0350989,370.386,413.084)">
                        <text x="76.863px" y="6008.08px" style="font-family:'FredokaOne-Regular', 'Fredoka One';font-size:41.703px;fill:white;">1-69</text>
                    </g>
                </g>
                <g>
                    <g transform="matrix(0.306212,0,0,0.0448212,407.007,356.013)">
                        <circle cx="131.042" cy="5966.2" r="69.97" style="fill:rgb(25,196,196);"/>
                    </g>
                    <g transform="matrix(0.239791,0,0,0.0350989,418.952,413.084)">
                        <text x="76.863px" y="6008.08px" style="font-family:'FredokaOne-Regular', 'Fredoka One';font-size:41.703px;fill:white;">1-69</text>
                    </g>
                </g>
                <g>
                    <g transform="matrix(0.414565,0,0,0.0606812,496.273,261.39)">
                        <circle cx="131.042" cy="5966.2" r="69.97" style="fill:rgb(196,25,25);"/>
                    </g>
                    <g transform="matrix(0.239791,0,0,0.0350989,518.175,413.298)">
                        <text x="76.863px" y="6008.08px" style="font-family:'FredokaOne-Regular', 'Fredoka One';font-size:58.384px;fill:white;">1-26</text>
                    </g>
                </g>
            </g>
        </g>
    </g>
</svg>
